<svg width="40" height="40" viewBox="0 0 40 40" fill="none" xmlns="http://www.w3.org/2000/svg">
<mask id="mask0_38_3750" style="mask-type:alpha" maskUnits="userSpaceOnUse" x="0" y="0" width="40" height="40">
<rect width="40" height="40" fill="#D9D9D9"/>
</mask>
<g mask="url(#mask0_38_3750)">
<path d="M9.75016 28.5002C11.1668 27.4168 12.7502 26.5624 14.5002 25.9368C16.2502 25.3124 18.0835 25.0002 20.0002 25.0002C21.9168 25.0002 23.7502 25.3124 25.5002 25.9368C27.2502 26.5624 28.8335 27.4168 30.2502 28.5002C31.2224 27.3613 31.9796 26.0696 32.5218 24.6252C33.0629 23.1807 33.3335 21.6391 33.3335 20.0002C33.3335 16.3057 32.0352 13.1596 29.4385 10.5618C26.8407 7.96516 23.6946 6.66683 20.0002 6.66683C16.3057 6.66683 13.1602 7.96516 10.5635 10.5618C7.96572 13.1596 6.66683 16.3057 6.66683 20.0002C6.66683 21.6391 6.93794 23.1807 7.48016 24.6252C8.02127 26.0696 8.77794 27.3613 9.75016 28.5002ZM20.0002 21.6668C18.3613 21.6668 16.9791 21.1046 15.8535 19.9802C14.7291 18.8546 14.1668 17.4724 14.1668 15.8335C14.1668 14.1946 14.7291 12.8124 15.8535 11.6868C16.9791 10.5624 18.3613 10.0002 20.0002 10.0002C21.6391 10.0002 23.0213 10.5624 24.1468 11.6868C25.2713 12.8124 25.8335 14.1946 25.8335 15.8335C25.8335 17.4724 25.2713 18.8546 24.1468 19.9802C23.0213 21.1046 21.6391 21.6668 20.0002 21.6668ZM20.0002 36.6668C17.6946 36.6668 15.5279 36.229 13.5002 35.3535C11.4724 34.4791 9.7085 33.2918 8.2085 31.7918C6.7085 30.2918 5.52127 28.5279 4.64683 26.5002C3.77127 24.4724 3.3335 22.3057 3.3335 20.0002C3.3335 17.6946 3.77127 15.5279 4.64683 13.5002C5.52127 11.4724 6.7085 9.7085 8.2085 8.2085C9.7085 6.7085 11.4724 5.52072 13.5002 4.64516C15.5279 3.77072 17.6946 3.3335 20.0002 3.3335C22.3057 3.3335 24.4724 3.77072 26.5002 4.64516C28.5279 5.52072 30.2918 6.7085 31.7918 8.2085C33.2918 9.7085 34.4791 11.4724 35.3535 13.5002C36.229 15.5279 36.6668 17.6946 36.6668 20.0002C36.6668 22.3057 36.229 24.4724 35.3535 26.5002C34.4791 28.5279 33.2918 30.2918 31.7918 31.7918C30.2918 33.2918 28.5279 34.4791 26.5002 35.3535C24.4724 36.229 22.3057 36.6668 20.0002 36.6668Z" fill="white"/>
<circle cx="32" cy="32" r="6" fill="#4ABB14"/>
</g>
</svg>
