<svg width="40" height="40" viewBox="0 0 40 40" fill="none" xmlns="http://www.w3.org/2000/svg">
<mask id="mask0_18_58" style="mask-type:alpha" maskUnits="userSpaceOnUse" x="0" y="0" width="40" height="40">
<rect width="40" height="40" fill="#D9D9D9"/>
</mask>
<g mask="url(#mask0_18_58)">
<path d="M9.75004 28.5002C11.1667 27.4168 12.75 26.5624 14.5 25.9368C16.25 25.3124 18.0834 25.0002 20 25.0002C21.9167 25.0002 23.75 25.3124 25.5 25.9368C27.25 26.5624 28.8334 27.4168 30.25 28.5002C31.2223 27.3613 31.9795 26.0696 32.5217 24.6252C33.0628 23.1807 33.3334 21.6391 33.3334 20.0002C33.3334 16.3057 32.035 13.1596 29.4384 10.5618C26.8406 7.96516 23.6945 6.66683 20 6.66683C16.3056 6.66683 13.16 7.96516 10.5634 10.5618C7.9656 13.1596 6.66671 16.3057 6.66671 20.0002C6.66671 21.6391 6.93782 23.1807 7.48004 24.6252C8.02115 26.0696 8.77782 27.3613 9.75004 28.5002ZM20 21.6668C18.3612 21.6668 16.9789 21.1046 15.8534 19.9802C14.7289 18.8546 14.1667 17.4724 14.1667 15.8335C14.1667 14.1946 14.7289 12.8124 15.8534 11.6868C16.9789 10.5624 18.3612 10.0002 20 10.0002C21.6389 10.0002 23.0212 10.5624 24.1467 11.6868C25.2712 12.8124 25.8334 14.1946 25.8334 15.8335C25.8334 17.4724 25.2712 18.8546 24.1467 19.9802C23.0212 21.1046 21.6389 21.6668 20 21.6668ZM20 36.6668C17.6945 36.6668 15.5278 36.229 13.5 35.3535C11.4723 34.4791 9.70837 33.2918 8.20837 31.7918C6.70837 30.2918 5.52115 28.5279 4.64671 26.5002C3.77115 24.4724 3.33337 22.3057 3.33337 20.0002C3.33337 17.6946 3.77115 15.5279 4.64671 13.5002C5.52115 11.4724 6.70837 9.7085 8.20837 8.2085C9.70837 6.7085 11.4723 5.52072 13.5 4.64516C15.5278 3.77072 17.6945 3.3335 20 3.3335C22.3056 3.3335 24.4723 3.77072 26.5 4.64516C28.5278 5.52072 30.2917 6.7085 31.7917 8.2085C33.2917 9.7085 34.4789 11.4724 35.3534 13.5002C36.2289 15.5279 36.6667 17.6946 36.6667 20.0002C36.6667 22.3057 36.2289 24.4724 35.3534 26.5002C34.4789 28.5279 33.2917 30.2918 31.7917 31.7918C30.2917 33.2918 28.5278 34.4791 26.5 35.3535C24.4723 36.229 22.3056 36.6668 20 36.6668Z" fill="#353535"/>
<circle cx="32" cy="32" r="6" fill="#4ABB14"/>
</g>
</svg>
