<svg width="48" height="48" viewBox="0 0 48 48" fill="none" xmlns="http://www.w3.org/2000/svg">
<path d="M24 26.6667C26.5778 26.6667 28.7778 25.7556 30.6 23.9333C32.4222 22.1111 33.3333 19.9111 33.3333 17.3333C33.3333 14.7556 32.4222 12.5556 30.6 10.7333C28.7778 8.91111 26.5778 8 24 8C21.4222 8 19.2222 8.91111 17.4 10.7333C15.5778 12.5556 14.6667 14.7556 14.6667 17.3333C14.6667 19.9111 15.5778 22.1111 17.4 23.9333C19.2222 25.7556 21.4222 26.6667 24 26.6667ZM5.33333 48C3.86667 48 2.61067 47.4782 1.56533 46.4347C0.521778 45.3893 0 44.1333 0 42.6667V5.33333C0 3.86667 0.521778 2.61067 1.56533 1.56533C2.61067 0.521778 3.86667 0 5.33333 0H42.6667C44.1333 0 45.3893 0.521778 46.4347 1.56533C47.4782 2.61067 48 3.86667 48 5.33333V42.6667C48 44.1333 47.4782 45.3893 46.4347 46.4347C45.3893 47.4782 44.1333 48 42.6667 48H5.33333ZM5.33333 42.6667H42.6667V39.6C40.2667 37.2444 37.4782 35.3884 34.3013 34.032C31.1227 32.6773 27.6889 32 24 32C20.3111 32 16.8782 32.6773 13.7013 34.032C10.5227 35.3884 7.73333 37.2444 5.33333 39.6V42.6667Z" fill="white"/>
</svg>
