<svg width="40" height="40" viewBox="0 0 40 40" fill="none" xmlns="http://www.w3.org/2000/svg">
<g clip-path="url(#clip0_72_4814)">
<circle cx="20" cy="20" r="20" fill="#E7DB59"/>
<path d="M21.7196 18.2263C21.148 19.5188 20.4344 21.361 20.1875 21.7406C20.0802 21.8964 19.9287 22.0168 19.7524 22.0863C19.7582 22.1004 19.7648 22.1142 19.772 22.1276C20.3819 23.2296 21.4856 23.123 21.9852 22.878C21.9871 22.8879 21.99 22.8972 21.9919 22.9068C21.99 22.8972 21.9871 22.8879 21.9852 22.878L21.9895 22.8759L21.9849 22.8775C21.9884 22.8775 21.9906 22.8743 21.994 22.8729L22.0013 22.8692C22.4961 22.6116 23.1555 21.3108 24.1462 19.5703C24.2614 19.3707 24.3635 19.1639 24.4517 18.951C24.4517 18.9529 24.4498 18.9553 24.4488 18.9569C24.9776 17.6625 24.3883 17.122 23.4568 16.6388C23.4511 16.6356 23.4452 16.6327 23.4393 16.63C22.842 16.3308 22.1132 16.6975 21.9916 17.3531C21.935 17.6537 21.8437 17.9467 21.7196 18.2263Z" fill="black"/>
<path d="M24.273 20.1638C23.3308 21.8188 22.6874 23.0779 22.2012 23.4183C22.3426 23.6225 22.5465 23.7755 22.7825 23.8545C24.2184 24.3654 24.6066 24.0008 25.6503 22.7437C26.1909 21.9816 26.5992 21.3642 26.6014 21.361C26.6679 21.1561 26.702 20.9421 26.7023 20.7267C26.7025 20.6013 26.6908 20.4762 26.6675 20.353C26.5888 19.939 26.3791 19.4972 25.9055 19.1446L25.895 19.1371C25.4399 18.8034 24.793 19.0116 24.5831 19.5332C24.4939 19.75 24.3903 19.9607 24.273 20.1638Z" fill="black"/>
<path d="M22.959 24.1613C21.6516 23.6207 21.9895 23.3936 21.7247 23.2224C21.4821 23.0657 21.3688 23.2459 21.0221 23.1877C21.1613 24.736 20.4363 26.2981 20.3733 26.4281C20.7685 25.375 20.4866 23.7406 20.3016 22.9283C20.3073 22.9316 20.3133 22.9346 20.3195 22.9371C19.6234 22.5724 19.5821 22.0722 19.3746 21.7545C19.176 21.4502 19.1154 21.6136 18.7741 21.5543C18.0881 21.4371 17.4763 20.6467 16.8404 20.301C16.3973 20.0608 16.0371 20.2989 15.8966 20.301C15.4331 21.1379 15.0191 21.3616 15.0055 21.3688C15.4253 20.9078 15.6936 20.3483 15.7632 20.1927C15.7193 20.1548 15.6676 20.1126 15.6229 20.0787C14.7913 20.5005 14.063 20.2824 13.9923 20.2599C14.5118 20.3763 15.2692 20.0216 15.5421 19.8796C15.5903 19.7502 15.6238 19.6159 15.6419 19.4791C14.3032 18.752 14.395 18.0796 14.3974 18.0628C14.4031 18.0796 14.6443 18.7429 15.835 19.2845C17.0827 19.4217 20.4097 18.1367 19.7441 16.3912C19.7262 16.3444 19.6988 16.3018 19.6638 16.266C19.8432 16.3431 19.9747 16.4438 20.0239 16.5714C20.5326 17.9031 18.7497 18.9204 17.3855 19.3147C17.2487 20.1887 17.4541 20.5568 18.0129 20.9796C18.7176 21.5111 19.3034 21.4887 19.6761 21.2975C20.2116 21.0226 20.18 20.5944 21.5616 17.4755C21.5614 17.4743 21.5614 17.4732 21.5616 17.472C22.1308 16.1792 22.0612 14.5133 20.478 14.3688C19.3267 14.2642 18.731 15.1665 18.49 15.6691C19.0263 14.1459 18.1569 13.0163 16.6934 13.1727C15.5308 13.2981 14.9584 14.4484 14.7388 15.0391C14.8521 15.0447 14.9712 15.0437 15.0869 15.076C16.5215 15.4737 18.4022 15.8648 18.4008 15.8682C18.8418 15.9139 19.3088 16.0057 19.5645 16.1838C19.7396 16.7812 18.4715 17.3898 18.4715 17.3898C17.6758 17.307 16.8918 17.0695 16.7129 16.7913C16.5341 16.5132 16.8016 15.7687 16.8016 15.7687C16.8016 15.7687 15.8644 15.4598 14.9319 15.3133C13.9993 15.1667 13.2662 15.4217 12.9743 15.8277C12.6825 16.2337 12.5974 16.4467 11.7376 18.8051C10.8779 21.1635 10.9263 22.1517 11.1103 22.5546C11.2875 22.9427 14.775 27.9201 15.1694 28.734C15.2076 28.9902 15.1774 29.7409 15.1268 30.5545H24.2608C24.5363 28.4758 24.57 28.1357 25.8791 24.6994C26.1182 24.0684 26.3439 22.9002 26.4772 22.1272C25.4951 23.3356 24.3604 24.7435 22.959 24.1613Z" fill="black"/>
<path fill-rule="evenodd" clip-rule="evenodd" d="M21.9034 9L22.2804 9.37697C22.5356 9.63213 23.1862 10.1572 24.0477 10.5882C24.9094 11.0194 25.9311 11.3309 26.9464 11.2311L27.7745 11.1497L27.5116 11.9634C27.4094 12.28 27.3544 12.8478 27.567 13.4367C27.7719 14.0044 28.2414 14.6371 29.2655 15.0901L30 15.415L29.4351 15.998C29.2007 16.24 28.8782 16.6732 28.6921 17.1533C28.5059 17.6339 28.4875 18.0692 28.6948 18.4258L27.7658 19C27.3158 18.2259 27.4344 17.389 27.6864 16.7388C27.8235 16.3849 28.0095 16.0589 28.2011 15.7831C27.3228 15.2427 26.8103 14.5421 26.5519 13.8263C26.3655 13.3099 26.317 12.8013 26.3459 12.3624C25.3205 12.3207 24.3591 11.9854 23.5749 11.593C22.8848 11.2477 22.3056 10.8451 21.9077 10.5193C20.6057 11.6057 18.805 12.1098 17 11.6203L17.2755 10.5402C18.8655 10.9714 20.4606 10.4427 21.5264 9.37697L21.9034 9Z" fill="black"/>
</g>
<defs>
<clipPath id="clip0_72_4814">
<rect width="40" height="40" fill="white"/>
</clipPath>
</defs>
</svg>
