<svg width="40" height="40" viewBox="0 0 40 40" fill="none" xmlns="http://www.w3.org/2000/svg">
<g clip-path="url(#clip0_66_4920)">
<circle cx="20" cy="20" r="20" fill="#E7DB59"/>
<path d="M27 10H13C12.4477 10 12 10.4477 12 11V29C12 29.5523 12.4477 30 13 30H27C27.5523 30 28 29.5523 28 29V11C28 10.4477 27.5523 10 27 10Z" fill="#232323"/>
<path fill-rule="evenodd" clip-rule="evenodd" d="M11.25 11C11.25 10.0335 12.0335 9.25 13 9.25H27C27.9665 9.25 28.75 10.0335 28.75 11V29C28.75 29.9665 27.9665 30.75 27 30.75H13C12.0335 30.75 11.25 29.9665 11.25 29V11ZM13 10.75C12.8619 10.75 12.75 10.8619 12.75 11V29C12.75 29.1381 12.8619 29.25 13 29.25H27C27.1381 29.25 27.25 29.1381 27.25 29V11C27.25 10.8619 27.1381 10.75 27 10.75H13Z" fill="#232323"/>
<path fill-rule="evenodd" clip-rule="evenodd" d="M15.75 23C15.75 22.5858 16.0858 22.25 16.5 22.25H23.5C23.9142 22.25 24.25 22.5858 24.25 23C24.25 23.4142 23.9142 23.75 23.5 23.75H16.5C16.0858 23.75 15.75 23.4142 15.75 23Z" fill="#E7DB59"/>
<path fill-rule="evenodd" clip-rule="evenodd" d="M15.75 26C15.75 25.5858 16.0858 25.25 16.5 25.25H20C20.4142 25.25 20.75 25.5858 20.75 26C20.75 26.4142 20.4142 26.75 20 26.75H16.5C16.0858 26.75 15.75 26.4142 15.75 26Z" fill="#E7DB59"/>
<path fill-rule="evenodd" clip-rule="evenodd" d="M23.5303 13.9697C23.8232 14.2626 23.8232 14.7374 23.5303 15.0303L19.5303 19.0303C19.2374 19.3232 18.7626 19.3232 18.4697 19.0303L16.4697 17.0303C16.1768 16.7374 16.1768 16.2626 16.4697 15.9697C16.7626 15.6768 17.2374 15.6768 17.5303 15.9697L19 17.4393L22.4697 13.9697C22.7626 13.6768 23.2374 13.6768 23.5303 13.9697Z" fill="#E7DB59"/>
</g>
<defs>
<clipPath id="clip0_66_4920">
<rect width="40" height="40" fill="white"/>
</clipPath>
</defs>
</svg>
