<svg width="1920" height="1080" viewBox="0 0 1920 1080" fill="none" xmlns="http://www.w3.org/2000/svg">
<mask id="mask0_17_604" style="mask-type:alpha" maskUnits="userSpaceOnUse" x="0" y="0" width="1920" height="1080">
<rect width="1920" height="1080" rx="8" fill="#D9D9D9"/>
</mask>
<g mask="url(#mask0_17_604)">
<g opacity="0.3">
<g opacity="0.3">
<path d="M2290.43 232.714C2289.61 232.091 2288.68 231.657 2287.68 231.441C2286.69 231.225 2285.66 231.232 2284.67 231.461C2283.68 231.691 2282.75 232.138 2281.94 232.772C2281.13 233.406 2280.46 234.212 2279.98 235.137L2074.15 135.612L2074.22 135.253L2073.67 135.382L2071.98 134.568L2072.79 135.588L1941.78 165.917C1941.46 164.771 1940.88 163.723 1940.08 162.862C1939.28 162.001 1938.3 161.352 1937.2 160.972C1936.11 160.591 1934.95 160.491 1933.81 160.678C1932.67 160.865 1931.6 161.335 1930.67 162.048L1862.43 78.3004C1863.14 77.5909 1863.71 76.7352 1864.08 75.7876C1864.46 74.8401 1864.64 73.8215 1864.62 72.7967C1864.6 71.7719 1864.37 70.7634 1863.95 69.8354C1863.53 68.9073 1862.92 68.0801 1862.18 67.4063C1861.43 66.7326 1860.56 66.2271 1859.61 65.922C1858.67 65.6169 1857.67 65.5189 1856.69 65.6343C1855.7 65.7496 1854.75 66.0758 1853.9 66.5921C1853.04 67.1083 1852.3 67.8033 1851.72 68.6328C1851.28 69.2579 1850.94 69.9492 1850.71 70.6822L1711.25 33.5728C1711.5 32.3243 1711.44 31.0287 1711.07 29.8128C1710.69 28.5969 1710.02 27.5024 1709.11 26.6366C1708.21 25.7706 1707.1 25.163 1705.9 24.8731C1704.7 24.5831 1703.44 24.6209 1702.26 24.9826L1659.93 -101.85C1661.3 -102.446 1662.46 -103.471 1663.24 -104.781C1664.02 -106.092 1664.39 -107.622 1664.29 -109.157C1664.19 -110.693 1663.62 -112.158 1662.68 -113.347C1661.73 -114.536 1660.45 -115.39 1659.02 -115.789C1657.58 -116.188 1656.06 -116.112 1654.67 -115.572C1653.27 -115.032 1652.08 -114.056 1651.25 -112.778C1650.42 -111.501 1649.99 -109.987 1650.04 -108.448C1650.08 -106.91 1650.58 -105.423 1651.48 -104.196L1560.39 -22.6467C1560.11 -22.9352 1559.82 -23.201 1559.5 -23.4416C1558.54 -24.1678 1557.42 -24.633 1556.24 -24.7946C1555.06 -24.9561 1553.86 -24.809 1552.75 -24.3666C1551.64 -23.9241 1550.65 -23.2005 1549.88 -22.2619C1549.11 -21.3232 1548.57 -20.1994 1548.33 -18.9932L1443.19 -34.6797C1443.26 -36.1948 1442.88 -37.6953 1442.09 -38.9775C1441.31 -40.2597 1440.16 -41.2614 1438.81 -41.8466C1437.46 -42.4318 1435.97 -42.5721 1434.53 -42.2485C1433.1 -41.9249 1431.8 -41.153 1430.81 -40.0378C1429.82 -38.9225 1429.18 -37.5178 1428.98 -36.0145C1428.79 -34.5113 1429.04 -32.9822 1429.72 -31.6351C1430.39 -30.2879 1431.45 -29.1879 1432.75 -28.4845C1434.05 -27.7811 1435.52 -27.5083 1436.98 -27.7031L1454.28 63.9785C1452.5 64.465 1450.98 65.6407 1450.02 67.261C1449.06 68.8814 1448.74 70.8218 1449.13 72.6786C1449.52 74.5355 1450.58 76.1659 1452.1 77.2307C1453.62 78.2956 1455.48 78.713 1457.29 78.3962L1491.37 226.858C1490.09 227.264 1488.95 228.034 1488.07 229.081C1487.19 230.128 1486.62 231.408 1486.41 232.776C1486.21 234.144 1486.38 235.545 1486.9 236.818C1487.43 238.091 1488.29 239.186 1489.39 239.977C1490.49 240.768 1491.78 241.223 1493.11 241.291C1494.45 241.359 1495.78 241.036 1496.95 240.36C1498.11 239.684 1499.07 238.682 1499.72 237.468C1500.36 236.254 1500.66 234.877 1500.59 233.494L1597.48 221.294C1597.73 222.621 1598.32 223.853 1599.2 224.855C1600.07 225.857 1601.2 226.591 1602.45 226.977C1603.7 227.362 1605.03 227.384 1606.29 227.041C1607.56 226.697 1608.7 226.001 1609.61 225.029L1787.99 380.988L1788.29 380.62C1787.66 381.513 1787.23 382.542 1787.03 383.63C1786.84 384.719 1786.88 385.839 1787.16 386.908C1787.44 387.978 1787.94 388.969 1788.64 389.808C1789.34 390.647 1790.21 391.313 1791.19 391.757C1792.17 392.201 1793.24 392.411 1794.3 392.372C1795.37 392.333 1796.42 392.045 1797.37 391.531C1798.32 391.017 1799.14 390.288 1799.78 389.4C1800.42 388.512 1800.86 387.486 1801.06 386.399L1876.78 393.199C1876.78 393.574 1876.8 393.948 1876.86 394.319L1706.93 433.736C1706.53 432.313 1705.72 431.048 1704.61 430.107C1703.51 429.166 1702.15 428.591 1700.72 428.458C1699.29 428.326 1697.86 428.641 1696.61 429.363C1695.36 430.086 1694.35 431.181 1693.7 432.508C1693.06 433.834 1692.82 435.329 1693.01 436.799C1693.2 438.269 1693.82 439.645 1694.78 440.748C1695.74 441.851 1696.99 442.63 1698.38 442.984C1699.78 443.337 1701.24 443.248 1702.58 442.729L1783.88 630.215C1782.99 630.737 1782.23 631.447 1781.64 632.299C1781.04 633.151 1780.63 634.124 1780.43 635.154C1780.23 636.184 1780.24 637.247 1780.47 638.271C1780.69 639.295 1781.13 640.257 1781.74 641.093C1782.36 641.929 1783.14 642.619 1784.04 643.117C1784.93 643.615 1785.92 643.91 1786.93 643.982C1787.94 644.054 1788.96 643.901 1789.91 643.533C1790.86 643.166 1791.73 642.592 1792.44 641.851L1865.48 702.902C1864.75 703.971 1864.3 705.223 1864.19 706.528C1864.09 707.833 1864.31 709.144 1864.86 710.328C1865.4 711.511 1866.24 712.523 1867.28 713.262C1868.33 714 1869.55 714.436 1870.81 714.527C1872.07 714.618 1873.33 714.36 1874.47 713.779C1875.6 713.198 1876.57 712.315 1877.26 711.221C1877.96 710.127 1878.36 708.861 1878.43 707.553C1878.49 706.245 1878.22 704.942 1877.64 703.778L1939.97 665.026C1940.58 665.888 1941.36 666.603 1942.26 667.122C1943.16 667.642 1944.16 667.952 1945.19 668.034C1946.22 668.115 1947.25 667.964 1948.22 667.593C1949.19 667.221 1950.06 666.637 1950.79 665.88C1951.52 665.124 1952.08 664.213 1952.44 663.211C1952.79 662.208 1952.93 661.138 1952.85 660.074C1952.77 659.01 1952.46 657.977 1951.96 657.046C1951.45 656.116 1950.76 655.31 1949.92 654.683L1949.83 654.621L1997.31 567.072C1998.31 567.626 1999.42 567.926 2000.56 567.946C2001.69 567.966 2002.81 567.706 2003.82 567.188C2004.84 566.669 2005.72 565.907 2006.39 564.965C2007.07 564.023 2007.51 562.928 2007.7 561.771L2102 571.597C2101.95 572.995 2102.29 574.378 2102.97 575.585C2103.65 576.792 2104.65 577.774 2105.85 578.416C2107.05 579.058 2108.41 579.333 2109.75 579.211C2111.1 579.088 2112.38 578.572 2113.46 577.723C2114.53 576.873 2115.35 575.726 2115.82 574.414C2116.29 573.102 2116.39 571.679 2116.1 570.311C2115.82 568.943 2115.17 567.687 2114.22 566.688C2113.28 565.688 2112.08 564.988 2110.76 564.668L2124.83 477.406C2125.92 477.521 2127.02 477.376 2128.04 476.981C2129.07 476.586 2129.99 475.953 2130.74 475.13C2131.49 474.307 2132.05 473.316 2132.37 472.234C2132.69 471.153 2132.76 470.009 2132.59 468.892L2249.65 441.264C2250.06 442.695 2250.88 443.964 2252 444.905C2253.11 445.846 2254.48 446.414 2255.92 446.535C2257.36 446.656 2258.8 446.323 2260.05 445.581C2261.3 444.84 2262.3 443.723 2262.93 442.379C2263.55 441.035 2263.77 439.526 2263.55 438.051C2263.34 436.576 2262.69 435.205 2261.7 434.116C2260.72 433.028 2259.44 432.274 2258.03 431.954C2256.62 431.634 2255.15 431.763 2253.81 432.324L2178.4 271.02C2179.54 270.365 2180.49 269.383 2181.11 268.19L2279.52 241.045C2279.88 242.146 2280.48 243.144 2281.28 243.957C2282.08 244.77 2283.06 245.376 2284.13 245.726C2285.2 246.076 2286.33 246.159 2287.44 245.97C2288.55 245.78 2289.6 245.323 2290.5 244.635C2291.41 243.948 2292.14 243.049 2292.65 242.012C2293.15 240.974 2293.41 239.829 2293.41 238.667C2293.41 237.505 2293.14 236.361 2292.63 235.326C2292.12 234.292 2291.38 233.397 2290.47 232.714H2290.43ZM2073.87 136.948L2169.98 259.179C2169.31 259.828 2168.76 260.607 2168.37 261.472L2057.23 216.716L2073.87 136.948ZM2043.46 464.798C2043.15 463.073 2042.26 461.517 2040.94 460.412L2170.82 270.996L2171.16 270.905C2171.64 271.201 2172.14 271.438 2172.67 271.614L2128.84 454.312L2043.46 464.798ZM2043.54 466.929L2118.41 470.223C2118.44 471.514 2118.79 472.776 2119.44 473.882L2067.92 511.096L2040.95 471.861C2041.43 471.462 2041.85 470.998 2042.22 470.482C2042.95 469.44 2043.4 468.219 2043.54 466.939V466.929ZM2040.19 459.857C2039.38 459.343 2038.49 458.999 2037.55 458.846L2051.27 303.293L2168.11 267.051C2168.53 268.283 2169.26 269.376 2170.23 270.221L2040.19 459.857ZM2029.4 467.326L1924.32 492.365C1923.87 490.823 1922.94 489.477 1921.68 488.534C1921.14 488.128 1920.54 487.805 1919.9 487.576L1938.75 419.975L2029.79 463.486C2029.34 464.705 2029.2 466.027 2029.4 467.317V467.326ZM2167.75 263.656L2061.89 258.097C2061.87 256.634 2061.43 255.212 2060.63 254.009C2059.82 252.806 2058.69 251.878 2057.38 251.342C2056.06 250.806 2054.62 250.687 2053.24 251C2051.86 251.312 2050.6 252.042 2049.63 253.098L2057.03 217.664L2168.04 262.377C2167.91 262.798 2167.82 263.229 2167.76 263.665L2167.75 263.656ZM2167.85 266.127L2051.35 302.264L2054.59 265.585C2056.37 265.637 2058.1 264.994 2059.45 263.785C2060.8 262.576 2061.66 260.888 2061.86 259.054L2167.29 264.59H2167.7C2167.71 265.109 2167.76 265.628 2167.87 266.136L2167.85 266.127ZM2050.56 264.178C2051.48 264.864 2052.54 265.316 2053.66 265.494L2050.39 302.561L1970.01 327.498C1969.82 326.994 1969.58 326.512 1969.29 326.062L2049.39 263.052C2049.75 263.474 2050.15 263.855 2050.58 264.187L2050.56 264.178ZM1968.7 325.233C1968.34 324.811 1967.94 324.43 1967.51 324.099C1966.74 323.518 1965.86 323.103 1964.93 322.879C1964 322.655 1963.04 322.627 1962.1 322.796L1954.9 281.095L2047.9 260.232C2048.11 260.958 2048.42 261.647 2048.83 262.277L1968.7 325.233ZM1961.2 323.021C1960.02 323.396 1958.96 324.081 1958.11 325.009C1957.27 325.938 1956.67 327.077 1956.38 328.317L1844.28 307.828C1844.35 307.19 1844.34 306.547 1844.25 305.913L1954 281.291L1961.2 323.021ZM1889.67 388.813L1958.54 335.557C1958.72 335.727 1958.92 335.886 1959.12 336.036C1959.67 336.439 1960.27 336.761 1960.9 336.993L1938.16 418.572L1890.58 395.813C1891 394.66 1891.14 393.416 1890.99 392.194C1890.83 390.971 1890.38 389.809 1889.67 388.813ZM1956.2 329.658C1956.16 330.393 1956.23 331.131 1956.39 331.846L1866.58 361.265L1841.05 313.248C1842.59 312.234 1843.7 310.64 1844.13 308.8L1956.2 329.658ZM1956.66 332.761C1956.95 333.527 1957.36 334.237 1957.87 334.863L1889.07 388.085C1887.95 386.862 1886.46 386.075 1884.85 385.857C1883.23 385.639 1881.6 386.003 1880.21 386.888L1867.04 362.118L1956.66 332.761ZM1889.68 397.537C1889.86 397.275 1890.03 397.001 1890.18 396.718L1937.89 419.539L1919 487.279C1917.88 487.027 1916.71 487.058 1915.6 487.37L1886.66 400.003C1887.87 399.489 1888.92 398.635 1889.7 397.537H1889.68ZM1939 419.012L1961.78 337.295C1963.32 337.645 1964.94 337.454 1966.36 336.754L2032.57 459.943C2031.83 460.438 2031.18 461.068 2030.66 461.801C2030.48 462.064 2030.31 462.339 2030.16 462.624L1939 419.012ZM1967.17 336.285C1968.41 335.467 1969.37 334.272 1969.92 332.864C1970.47 331.457 1970.59 329.906 1970.26 328.427L2050.3 303.6L2036.62 458.765C2035.51 458.735 2034.4 458.978 2033.39 459.474L1967.17 336.285ZM1941.99 166.851L2073.01 136.517L2056.35 216.371L1941.74 170.217C1942.07 169.13 1942.15 167.978 1941.99 166.851ZM1941.4 171.112L2056.15 217.319L2048.7 253.05L1940.95 171.936C1941.12 171.671 1941.27 171.396 1941.4 171.112ZM1940.42 172.711L2048.76 254.271C2047.83 255.765 2047.47 257.555 2047.72 259.308L1954.77 280.161L1936.66 175.163C1938.14 174.784 1939.46 173.925 1940.43 172.711H1940.42ZM1931.13 174.229C1932.49 175.129 1934.12 175.516 1935.73 175.326L1953.85 280.367L1844.06 304.993C1843.67 303.563 1842.86 302.292 1841.75 301.349L1931.13 174.229ZM1841.02 300.789C1840.19 300.248 1839.27 299.888 1838.31 299.731L1849.7 168.388L1927.81 168.464C1927.88 169.466 1928.13 170.444 1928.58 171.339C1929.02 172.233 1929.63 173.024 1930.38 173.664L1841.02 300.789ZM1837.38 299.645C1835.75 299.605 1834.15 300.146 1832.85 301.177L1723.86 173.047C1723.97 172.913 1724.08 172.779 1724.18 172.635C1725.07 171.366 1725.55 169.836 1725.54 168.268L1848.77 168.388L1837.38 299.645ZM1861.75 78.9037L1929.99 162.651C1928.7 163.922 1927.93 165.649 1927.82 167.487L1849.78 167.411L1857.33 80.3402C1858.91 80.3859 1860.47 79.8874 1861.75 78.9229V78.9037ZM1851.82 77.4193C1852.94 78.9459 1854.58 79.9627 1856.41 80.254L1848.85 167.401L1725.48 167.282C1725.35 166.264 1725.02 165.286 1724.5 164.409L1763.44 137.805L1851.82 77.4193ZM1851.32 76.6197L1844.24 81.4511L1723.94 163.638C1723.55 163.132 1723.1 162.681 1722.59 162.297C1721.4 161.395 1719.96 160.902 1718.47 160.889L1711.53 96.0698L1850.54 74.5224C1850.69 75.265 1850.95 75.9788 1851.32 76.6388V76.6197ZM1711.44 169.824L1612.3 198.745L1641.07 115.458C1642.35 115.836 1643.71 115.837 1644.99 115.46C1646.27 115.084 1647.42 114.345 1648.31 113.327L1712.79 163.738C1712.73 163.81 1712.67 163.877 1712.62 163.954C1712.04 164.791 1711.63 165.747 1711.42 166.758C1711.22 167.77 1711.22 168.814 1711.44 169.824ZM1699.24 37.2646L1667.26 74.6134L1644.51 101.16C1643.46 100.931 1642.38 100.948 1641.34 101.208L1648.11 14.003L1697.33 30.403C1697.06 31.6198 1697.1 32.8876 1697.43 34.0878C1697.76 35.2879 1698.38 36.381 1699.24 37.2646ZM1648.88 112.575C1649.55 111.577 1649.97 110.423 1650.11 109.215C1650.24 108.007 1650.09 106.783 1649.66 105.651L1710.61 96.223L1717.55 160.971C1715.98 161.157 1714.52 161.878 1713.39 163.02L1648.88 112.575ZM1710.06 36.4075C1710.47 35.8221 1710.8 35.1765 1711.03 34.4922L1850.5 71.6064C1850.38 72.2611 1850.35 72.9294 1850.4 73.5935L1711.42 95.1409L1705.44 39.3523C1707.29 39.0414 1708.96 37.9828 1710.06 36.4075ZM1704.51 39.4385L1710.53 95.2606L1649.24 104.751C1648.74 103.82 1648.05 103.015 1647.22 102.39C1646.69 101.988 1646.11 101.665 1645.49 101.433L1674.18 67.9768L1699.95 37.8919C1700 37.9397 1700.06 37.9876 1700.12 38.0307C1701.39 38.9944 1702.94 39.4899 1704.52 39.4385H1704.51ZM1659.06 -101.534L1701.42 25.3082C1700.26 25.8248 1699.26 26.6514 1698.52 27.7023C1698.13 28.2451 1697.82 28.8396 1697.59 29.4692L1648.19 13.007L1657.06 -101.275C1657.74 -101.263 1658.41 -101.35 1659.06 -101.534ZM1652.12 -103.473C1652.39 -103.185 1652.68 -102.919 1653 -102.678C1653.93 -101.976 1655.02 -101.519 1656.16 -101.347L1647.28 12.7006L1562.23 -15.6654C1562.49 -16.7378 1562.51 -17.8571 1562.3 -18.941C1562.09 -20.0249 1561.64 -21.0457 1561 -21.9285L1652.12 -103.473ZM1561.08 -13.1227C1561.43 -13.6265 1561.72 -14.1753 1561.94 -14.7556L1647.21 13.6822L1640.39 101.49C1639.66 101.791 1638.98 102.213 1638.39 102.74L1608.22 58.7737L1559.81 -11.7437C1560.29 -12.1431 1560.71 -12.6068 1561.08 -13.1227ZM1559.06 -11.1835L1637.71 103.405C1637.55 103.594 1637.39 103.792 1637.25 103.999C1636.73 104.746 1636.34 105.587 1636.12 106.48L1530.49 85.4493L1554.03 -10.2163C1555.76 -9.8856 1557.55 -10.2301 1559.06 -11.1835ZM1551.11 -11.5139C1551.72 -11.0588 1552.39 -10.7049 1553.1 -10.4652L1529.56 85.2674L1463.18 72.0373C1463.41 70.1279 1462.91 68.2013 1461.79 66.6648L1550.22 -12.2944C1550.5 -12.0109 1550.8 -11.75 1551.11 -11.5139ZM1455.19 63.7966L1437.88 -27.8851C1439.2 -28.2408 1440.39 -28.9811 1441.31 -30.0177C1442.23 -31.0543 1442.85 -32.3436 1443.08 -33.7316L1548.2 -18.0451C1548.06 -16.2472 1548.56 -14.4589 1549.61 -13.0174L1461.18 65.9466C1460.91 65.6525 1460.61 65.3834 1460.29 65.1421C1458.82 64.0344 1456.99 63.5529 1455.19 63.7966ZM1492.27 226.633L1458.19 78.1711C1459.35 77.8053 1460.41 77.1356 1461.25 76.2266C1462.09 75.3176 1462.69 74.1998 1463 72.9806L1529.33 86.1963L1494.77 226.657C1493.94 226.498 1493.1 226.49 1492.27 226.633ZM1498.7 228.897C1497.87 227.97 1496.83 227.279 1495.67 226.891L1530.24 86.3783L1635.95 107.447C1635.72 109.279 1636.17 111.131 1637.2 112.637L1498.7 228.897ZM1499.28 229.644L1637.79 113.375C1638.1 113.73 1638.45 114.05 1638.83 114.332C1639.26 114.656 1639.72 114.926 1640.22 115.137L1611.21 199.066L1500.19 231.45C1499.97 230.807 1499.66 230.2 1499.28 229.644ZM1598.72 215.581C1597.75 216.957 1597.27 218.64 1597.37 220.341L1500.47 232.546C1500.47 232.489 1500.45 232.431 1500.43 232.374L1610.82 200.172L1606.45 212.833C1605.04 212.416 1603.55 212.456 1602.16 212.947C1600.78 213.439 1599.58 214.358 1598.72 215.581ZM1608.69 213.953C1608.26 213.634 1607.79 213.366 1607.3 213.154L1611.92 199.852L1711.69 170.748C1711.69 170.767 1711.69 170.787 1711.69 170.806L1610.83 216.534C1610.32 215.511 1609.58 214.626 1608.68 213.953H1608.69ZM1788.6 380.265L1610.23 224.315L1610.26 224.272C1610.95 223.294 1611.39 222.157 1611.55 220.961C1611.71 219.764 1611.59 218.545 1611.19 217.41L1712.05 171.682C1712.85 173.282 1714.18 174.525 1715.8 175.178C1717.42 175.831 1719.21 175.848 1720.84 175.225L1791.52 378.082C1790.39 378.54 1789.38 379.291 1788.6 380.265ZM1792.44 377.804L1721.71 174.828C1722.26 174.537 1722.77 174.173 1723.22 173.746L1740.55 194.096L1832.16 301.833C1831.9 302.103 1831.66 302.393 1831.44 302.7C1830.33 304.284 1829.87 306.261 1830.16 308.196C1830.46 310.131 1831.48 311.866 1833.01 313.018C1833.11 313.09 1833.22 313.152 1833.32 313.224L1797.69 378.637C1796.11 377.667 1794.23 377.369 1792.44 377.804ZM1800.89 382.779C1800.46 381.347 1799.61 380.087 1798.47 379.169L1834.12 313.679C1835.07 314.154 1836.12 314.403 1837.17 314.409C1838.23 314.415 1839.28 314.177 1840.24 313.713L1865.68 361.557L1800.89 382.779ZM1876.85 392.26L1801.2 385.466C1801.24 384.88 1801.21 384.292 1801.11 383.713L1866.14 362.415L1879.45 387.448C1878.01 388.629 1877.08 390.349 1876.85 392.236V392.26ZM1784.71 629.798L1703.44 442.355C1704.75 441.636 1705.81 440.511 1706.48 439.138C1707.14 437.764 1707.37 436.211 1707.14 434.694L1877.07 395.282C1877.51 396.846 1878.44 398.216 1879.71 399.174C1880.05 399.426 1880.41 399.647 1880.78 399.835L1789.69 629.64C1788.07 629.073 1786.3 629.129 1784.71 629.798ZM1792.05 631.029C1791.91 630.9 1791.76 630.775 1791.59 630.656C1791.25 630.406 1790.9 630.187 1790.53 630L1881.67 400.194C1883.01 400.664 1884.46 400.708 1885.83 400.319L1914.78 487.682C1913.57 488.197 1912.52 489.051 1911.75 490.148C1910.78 491.532 1910.3 493.224 1910.4 494.933C1910.5 496.643 1911.17 498.264 1912.29 499.518L1792.05 631.029ZM1939.97 656.311C1939.17 657.447 1938.71 658.794 1938.63 660.194C1938.54 661.594 1938.85 662.99 1939.51 664.217L1877.18 702.949C1876.57 702.038 1875.77 701.28 1874.84 700.731C1873.91 700.182 1872.88 699.858 1871.81 699.781C1870.74 699.704 1869.67 699.877 1868.68 700.287C1867.69 700.697 1866.8 701.334 1866.07 702.15L1793.06 641.132C1793.1 641.08 1793.14 641.032 1793.18 640.979C1794.14 639.611 1794.61 637.943 1794.53 636.255C1794.45 634.566 1793.8 632.958 1792.71 631.699L1912.93 500.174C1913.04 500.275 1913.16 500.375 1913.29 500.471C1914.72 501.554 1916.5 502.039 1918.27 501.831L1944.26 653.443C1942.53 653.816 1941 654.838 1939.97 656.311ZM1948.66 653.917C1947.57 653.414 1946.39 653.202 1945.2 653.299L1919.21 501.663C1920.95 501.222 1922.47 500.116 1923.46 498.566C1924.45 497.017 1924.84 495.137 1924.55 493.303L2029.61 468.275C2030.06 469.815 2030.99 471.161 2032.25 472.105C2032.47 472.279 2032.7 472.439 2032.94 472.584L1948.66 653.917ZM1952.78 647.247L1993.64 559.358C1993.42 560.709 1993.57 562.098 1994.07 563.367C1994.57 564.635 1995.4 565.734 1996.48 566.54L1996.53 566.578L1952.78 647.247ZM1995.39 555.599L2031.27 478.445L2002.58 553.439C2001.3 553.071 1999.95 553.078 1998.68 553.46C1997.41 553.841 1996.26 554.582 1995.37 555.599H1995.39ZM2006.11 555.776C2005.4 554.885 2004.48 554.19 2003.44 553.751L2034.28 473.173C2035.26 473.501 2036.3 473.604 2037.33 473.476C2038.35 473.348 2039.34 472.991 2040.22 472.431L2067.19 511.657L2006.11 555.776ZM2103.38 567.517C2102.73 568.444 2102.3 569.517 2102.12 570.649L2007.82 560.823C2007.87 559.31 2007.47 557.817 2006.67 556.547L2067.74 512.437L2104.67 566.138C2104.17 566.534 2103.73 566.998 2103.36 567.517H2103.38ZM2111.5 554.359L2109.86 564.519C2108.3 564.355 2106.73 564.727 2105.4 565.578L2068.48 511.886L2119.95 474.672C2120.95 475.968 2122.34 476.879 2123.9 477.257L2111.5 554.359ZM2119.79 465.722C2119.06 466.765 2118.6 467.991 2118.47 469.275L2043.6 465.981C2043.6 465.904 2043.6 465.832 2043.6 465.756L2128.6 455.346L2126.81 462.821C2125.49 462.572 2124.13 462.712 2122.88 463.225C2121.64 463.738 2120.56 464.604 2119.77 465.722H2119.79ZM2132.4 467.963C2132.07 466.808 2131.47 465.753 2130.66 464.893C2129.84 464.033 2128.84 463.394 2127.73 463.031L2129.61 455.207L2247.9 440.694L2132.4 467.963ZM2252.97 432.74C2251.81 433.414 2250.86 434.409 2250.22 435.612C2249.59 436.815 2249.29 438.179 2249.36 439.549L2129.84 454.211L2173.6 271.863C2174.93 272.107 2176.29 271.96 2177.54 271.437L2252.97 432.74ZM2279.26 240.121L2181.59 267.065C2182.1 265.586 2182.14 263.977 2181.7 262.472C2181.27 260.968 2180.38 259.647 2179.17 258.701C2177.95 257.755 2176.48 257.234 2174.97 257.213C2173.45 257.192 2171.96 257.673 2170.73 258.585L2075.27 137.201L2279.58 236.003C2279.09 237.314 2278.97 238.743 2279.24 240.121H2279.26Z" fill="url(#paint0_linear_17_604)"/>
</g>
<path d="M2164 670.083C2163.62 669.091 2162.96 668.244 2162.1 667.656C2161.24 667.069 2160.22 666.769 2159.19 666.798L2145.27 547.569C2145.53 547.514 2145.79 547.435 2146.04 547.334C2146.7 547.064 2147.3 546.651 2147.8 546.123C2148.29 545.594 2148.68 544.962 2148.92 544.269C2149.16 543.576 2149.26 542.837 2149.2 542.103C2149.14 541.368 2148.94 540.654 2148.59 540.009C2148.25 539.363 2147.78 538.801 2147.21 538.359C2146.64 537.917 2145.98 537.606 2145.29 537.447C2144.59 537.287 2143.87 537.283 2143.18 537.434C2142.48 537.585 2141.82 537.888 2141.25 538.323L2098.52 488.385C2099.01 487.849 2099.38 487.211 2099.61 486.513C2099.84 485.816 2099.92 485.076 2099.86 484.343C2099.79 483.609 2099.57 482.899 2099.22 482.259C2098.86 481.62 2098.38 481.065 2097.81 480.633C2097.23 480.201 2096.57 479.901 2095.87 479.753C2095.18 479.605 2094.46 479.613 2093.76 479.775C2093.07 479.938 2092.41 480.252 2091.85 480.696C2091.28 481.141 2090.81 481.705 2090.47 482.352L2025.47 453.297C2025.85 452.105 2025.79 450.813 2025.32 449.66C2024.84 448.506 2023.98 447.57 2022.89 447.024L2081.7 284.911C2082.57 285.157 2083.47 285.16 2084.34 284.92C2085.2 284.68 2085.99 284.206 2086.61 283.547C2087.24 282.887 2087.68 282.067 2087.9 281.17C2088.12 280.274 2088.1 279.333 2087.85 278.446C2087.6 277.559 2087.12 276.757 2086.47 276.124C2085.82 275.491 2085.02 275.049 2084.14 274.845C2083.27 274.641 2082.37 274.681 2081.51 274.961C2080.66 275.242 2079.9 275.753 2079.3 276.441L1917.17 151.289C1918.34 150.691 1919.23 149.646 1919.67 148.376C1920.1 147.107 1920.05 145.712 1919.5 144.486C1918.96 143.261 1917.98 142.302 1916.77 141.812C1915.56 141.322 1914.21 141.339 1913.01 141.861C1912.78 141.954 1912.55 142.066 1912.34 142.196L1869.42 79.3348C1870.02 78.8086 1870.48 78.1454 1870.79 77.3984C1871.09 76.6515 1871.22 75.8416 1871.16 75.0338C1871.11 74.226 1870.87 73.4428 1870.47 72.747C1870.07 72.0511 1869.52 71.4621 1868.86 71.0271L1911.89 -15.5407L1912.64 -14.4825L1912.3 -16.3978L1912.56 -16.9149H1912.21L1883.38 -179.234C1883.53 -179.282 1883.69 -179.334 1883.84 -179.397C1884.88 -179.818 1885.76 -180.588 1886.33 -181.584C1886.9 -182.579 1887.13 -183.743 1886.99 -184.891C1886.84 -186.039 1886.33 -187.104 1885.54 -187.918C1884.74 -188.733 1883.71 -189.248 1882.6 -189.384C1881.49 -189.52 1880.37 -189.268 1879.41 -188.668C1878.45 -188.068 1877.72 -187.155 1877.32 -186.073C1876.93 -184.992 1876.89 -183.804 1877.22 -182.698C1877.55 -181.593 1878.23 -180.633 1879.14 -179.971L1843.82 -115.42C1843.69 -115.377 1843.56 -115.339 1843.43 -115.286C1842.81 -115.033 1842.24 -114.654 1841.76 -114.17L1749.19 -195.83C1749.69 -196.564 1750 -197.419 1750.08 -198.311C1750.17 -199.204 1750.03 -200.104 1749.67 -200.924C1749.32 -201.743 1748.77 -202.454 1748.07 -202.987C1747.37 -203.519 1746.55 -203.856 1745.69 -203.963C1744.83 -204.07 1743.96 -203.944 1743.16 -203.598C1742.36 -203.252 1741.66 -202.697 1741.13 -201.988C1740.6 -201.278 1740.26 -200.438 1740.13 -199.551C1740.01 -198.663 1740.11 -197.757 1740.43 -196.922C1740.82 -195.903 1741.51 -195.039 1742.4 -194.456L1703.49 -117.014C1702.8 -117.306 1702.06 -117.435 1701.31 -117.392C1700.57 -117.349 1699.84 -117.134 1699.19 -116.764C1698.54 -116.393 1697.97 -115.877 1697.54 -115.252C1697.1 -114.626 1696.81 -113.909 1696.67 -113.15L1636.85 -118.724C1636.85 -119.366 1636.73 -120.002 1636.51 -120.601C1636.2 -121.431 1635.68 -122.163 1635.02 -122.728C1634.35 -123.293 1633.56 -123.671 1632.71 -123.827C1631.87 -123.982 1630.99 -123.91 1630.18 -123.616C1629.37 -123.322 1628.64 -122.817 1628.07 -122.149C1627.51 -121.481 1627.11 -120.673 1626.93 -119.802C1626.75 -118.931 1626.79 -118.027 1627.05 -117.177C1627.3 -116.326 1627.76 -115.558 1628.39 -114.946C1629.01 -114.334 1629.78 -113.899 1630.62 -113.682L1620.35 -45.5921C1619.62 -45.6422 1618.89 -45.5245 1618.21 -45.2473C1617.11 -44.7985 1616.2 -43.961 1615.64 -42.883C1615.07 -41.805 1614.9 -40.5562 1615.14 -39.3577L1549.21 -21.4686C1548.7 -22.7102 1547.74 -23.6948 1546.53 -24.2128C1545.33 -24.7308 1543.97 -24.7413 1542.76 -24.2421C1541.55 -23.7429 1540.57 -22.7734 1540.04 -21.5399C1539.5 -20.3065 1539.46 -18.9065 1539.91 -17.638C1540.08 -17.1846 1540.31 -16.7589 1540.6 -16.3738L1504.12 20.6398C1503.42 20.0306 1502.58 19.6277 1501.69 19.4742C1500.79 19.3206 1499.87 19.4223 1499.03 19.7683C1498.58 19.9517 1498.16 20.1999 1497.78 20.5057L1444.57 -38.0505C1445.16 -38.7412 1445.56 -39.5818 1445.73 -40.486C1445.9 -41.3901 1445.84 -42.3251 1445.54 -43.1947C1445.25 -44.0643 1444.74 -44.8372 1444.06 -45.4339C1443.38 -46.0305 1442.56 -46.4294 1441.68 -46.5894C1440.81 -46.7494 1439.9 -46.6648 1439.07 -46.3444C1438.23 -46.0239 1437.5 -45.4791 1436.93 -44.766C1436.37 -44.0529 1436 -43.1972 1435.86 -42.2871C1435.72 -41.3769 1435.82 -40.4451 1436.15 -39.5876C1436.22 -39.3956 1436.31 -39.2085 1436.4 -39.0273L1340.91 26.5294C1340.33 25.7832 1339.56 25.2183 1338.69 24.8974C1337.82 24.5765 1336.87 24.5122 1335.97 24.7115C1335.06 24.9108 1334.23 25.3661 1333.56 26.0266C1332.89 26.6872 1332.41 27.5273 1332.17 28.4536C1331.93 29.3799 1331.95 30.3563 1332.21 31.2742C1332.48 32.1922 1332.98 33.0159 1333.68 33.6538C1334.37 34.2918 1335.21 34.719 1336.13 34.8882C1337.04 35.0573 1337.98 34.9617 1338.84 34.612C1339.55 34.3242 1340.18 33.8721 1340.69 33.2905L1474.2 138.312C1473.79 139.078 1473.58 139.936 1473.58 140.809C1473.58 141.681 1473.8 142.539 1474.2 143.304C1474.61 144.068 1475.2 144.714 1475.91 145.182C1476.62 145.65 1477.43 145.924 1478.27 145.98C1479.12 146.035 1479.96 145.87 1480.72 145.5C1481.48 145.13 1482.14 144.566 1482.64 143.861C1483.14 143.156 1483.46 142.333 1483.56 141.468C1483.67 140.603 1483.57 139.723 1483.26 138.911C1483.16 138.65 1483.04 138.399 1482.9 138.159L1528.64 99.6229C1529.09 100.126 1529.64 100.531 1530.25 100.813C1530.85 101.095 1531.51 101.249 1532.18 101.266C1532.84 101.283 1533.5 101.162 1534.12 100.911C1534.74 100.661 1535.31 100.284 1535.79 99.8048L1644.52 190.208C1644.04 190.951 1643.76 191.809 1643.7 192.698C1643.64 193.586 1643.8 194.476 1644.17 195.282C1644.54 196.088 1645.1 196.782 1645.8 197.297C1646.5 197.813 1647.32 198.132 1648.18 198.225C1649.03 198.318 1649.9 198.181 1650.69 197.827C1651.48 197.473 1652.17 196.915 1652.69 196.205C1653.21 195.496 1653.55 194.659 1653.66 193.777C1653.78 192.894 1653.68 191.995 1653.36 191.166C1653.14 190.573 1652.81 190.028 1652.39 189.562L1695.73 140.118C1696.42 140.651 1697.22 140.994 1698.07 141.115C1698.91 141.235 1699.78 141.13 1700.57 140.807L1700.16 141.013L1770.95 294.119C1770.17 294.592 1769.53 295.273 1769.1 296.09C1768.67 296.908 1768.45 297.832 1768.49 298.764C1768.52 299.696 1768.79 300.601 1769.28 301.385C1769.77 302.169 1770.45 302.802 1771.26 303.217L1746.07 369.229C1745.18 368.959 1744.23 368.95 1743.34 369.204C1742.44 369.457 1741.63 369.962 1741 370.663C1740.37 371.363 1739.94 372.232 1739.75 373.172C1739.57 374.113 1739.64 375.087 1739.96 375.988C1740.28 376.888 1740.83 377.679 1741.56 378.272C1742.29 378.865 1743.16 379.238 1744.08 379.348C1745.01 379.458 1745.94 379.301 1746.78 378.895C1747.62 378.489 1748.33 377.849 1748.84 377.048L1840.31 427.325C1839.83 428.533 1839.81 429.884 1840.25 431.109C1840.69 432.334 1841.56 433.342 1842.68 433.932C1843.81 434.521 1845.11 434.65 1846.32 434.29C1847.54 433.931 1848.58 433.111 1849.23 431.994L1906.39 460.422C1906.05 461.36 1905.98 462.38 1906.19 463.358C1906.4 464.336 1906.88 465.23 1907.57 465.932C1908.26 466.634 1909.14 467.113 1910.09 467.312C1911.04 467.512 1912.02 467.422 1912.92 467.054C1913.19 466.941 1913.44 466.809 1913.69 466.656L1984.72 561.943C1984.1 562.567 1983.64 563.347 1983.4 564.207C1983.16 565.067 1983.13 565.977 1983.33 566.85C1983.53 567.722 1983.94 568.527 1984.53 569.185C1985.11 569.843 1985.86 570.333 1986.68 570.606L1970.9 651.561C1970.15 651.461 1969.37 651.542 1968.65 651.798C1967.93 652.053 1967.27 652.477 1966.73 653.035C1966.19 653.594 1965.78 654.274 1965.53 655.022C1965.28 655.77 1965.2 656.568 1965.29 657.353C1965.39 658.138 1965.65 658.891 1966.07 659.553C1966.49 660.215 1967.05 660.769 1967.71 661.173C1968.37 661.577 1969.1 661.82 1969.87 661.884C1970.63 661.948 1971.4 661.83 1972.11 661.54L1972.16 661.512L2005.48 714.848L2023.1 743.042C2022.49 743.634 2022.03 744.373 2021.77 745.193C2021.51 746.012 2021.45 746.886 2021.6 747.735C2021.75 748.585 2022.1 749.382 2022.62 750.055C2023.14 750.729 2023.82 751.257 2024.59 751.593C2025.35 751.928 2026.19 752.059 2027.02 751.975C2027.85 751.891 2028.65 751.594 2029.34 751.111C2030.03 750.629 2030.59 749.975 2030.98 749.21C2031.36 748.444 2031.56 747.592 2031.54 746.729L2101.28 730.525C2101.28 730.597 2101.32 730.669 2101.34 730.736C2101.83 732.017 2102.79 733.046 2104.01 733.596C2105.22 734.146 2106.6 734.174 2107.84 733.671C2109.08 733.169 2110.07 732.179 2110.6 730.918C2111.14 729.657 2111.16 728.229 2110.68 726.949C2110.45 726.336 2110.1 725.775 2109.66 725.297L2156.15 676.039C2157.01 676.763 2158.07 677.171 2159.18 677.2C2160.29 677.229 2161.37 676.878 2162.27 676.201C2163.16 675.525 2163.81 674.56 2164.12 673.459C2164.43 672.358 2164.38 671.183 2163.97 670.116L2164 670.083ZM2029.45 742.539C2028.78 742.044 2027.99 741.732 2027.17 741.629C2026.34 741.526 2025.51 741.636 2024.74 741.95C2024.43 742.079 2024.14 742.239 2023.86 742.429L2003.88 710.462L1973 661.052C1973.41 660.789 1973.77 660.466 1974.09 660.094L2057.83 704.391L2029.45 742.539ZM1845.74 424.193L1848.81 375.281L1915.71 375.683C1915.75 376.176 1915.86 376.66 1916.04 377.12C1916.12 377.34 1916.22 377.552 1916.34 377.756L1848.79 425.975C1848.01 425.023 1846.93 424.391 1845.74 424.193ZM1749.66 373.734C1749.62 373.242 1749.51 372.758 1749.33 372.298C1749.23 372.028 1749.1 371.768 1748.96 371.522L1849.87 294.699C1850.64 295.592 1851.69 296.183 1852.83 296.37L1847.94 374.328L1749.66 373.734ZM1711.62 -111.589L1690.05 -54.575L1700.99 -107.064C1701.65 -106.981 1702.32 -107.035 1702.96 -107.223C1703.6 -107.41 1704.2 -107.728 1704.72 -108.157C1705.24 -108.587 1705.67 -109.119 1705.99 -109.723C1706.31 -110.327 1706.51 -110.991 1706.58 -111.675L1711.62 -111.589ZM1746.93 -193.948C1747.55 -194.198 1748.11 -194.576 1748.59 -195.059L1841.16 -113.423C1840.67 -112.697 1840.37 -111.856 1840.28 -110.976L1712.97 -112.547L1743.71 -193.833C1744.77 -193.514 1745.9 -193.568 1746.93 -193.986V-193.948ZM2078.01 279.898C2078.01 280.499 2078.1 281.097 2078.29 281.665L2002.98 317.213C2002.38 316.134 2001.43 315.313 2000.3 314.899C1999.16 314.485 1997.93 314.506 1996.81 314.958L1974.25 268.602L2078.01 279.898ZM2106.14 723.659H2105.82L2103.94 649.086C2104.69 648.998 2105.42 648.729 2106.07 648.302C2106.71 647.874 2107.25 647.298 2107.64 646.62L2120.77 653.209L2106.14 723.659ZM2083.25 530.326L2079.24 508.209C2079.39 508.161 2079.54 508.113 2079.7 508.051C2080.62 507.679 2081.41 507.037 2081.97 506.203L2095.97 514.496L2102.48 636.598L2083.25 530.326ZM2078.34 508.42L2092.32 585.631L2101.97 638.963C2101.81 639.007 2101.66 639.06 2101.51 639.121C2100.69 639.453 2099.97 640.005 2099.42 640.721L2020.11 586.857L2075.33 507.721C2076.24 508.264 2077.3 508.495 2078.34 508.381V508.42ZM2108.03 645.768C2108.46 644.589 2108.46 643.289 2108.03 642.111C2107.6 640.933 2106.77 639.959 2105.69 639.37L2142.7 547.545L2120.96 652.251L2108.03 645.768ZM2139.54 544.452C2139.98 545.605 2140.8 546.558 2141.85 547.138L2104.84 639.002C2104.41 638.866 2103.98 638.787 2103.53 638.767L2096.94 515.104L2139.66 540.41C2139.38 541.035 2139.23 541.711 2139.21 542.398C2139.19 543.084 2139.3 543.768 2139.54 544.409V544.452ZM2140.11 539.577L2096.88 513.965L2095.6 490.023C2095.98 489.967 2096.34 489.865 2096.69 489.721C2097.1 489.557 2097.48 489.34 2097.82 489.075L2140.56 539.022C2140.4 539.183 2140.25 539.356 2140.11 539.539V539.577ZM2091.75 488.946C2092.59 489.632 2093.61 490.024 2094.68 490.066L2095.92 513.395L2082.44 505.408C2082.72 504.776 2082.87 504.093 2082.89 503.398C2082.91 502.704 2082.79 502.013 2082.55 501.367C2082.34 500.816 2082.04 500.308 2081.66 499.863L2091.75 488.946ZM2073.13 501.606L2011.25 486.47L2019.74 456.783C2020.67 456.973 2021.63 456.883 2022.51 456.524C2023.12 456.281 2023.67 455.915 2024.14 455.447L2073.79 500.193C2073.51 500.614 2073.28 501.078 2073.13 501.568V501.606ZM1916.07 461.571C1915.93 460.29 1915.33 459.113 1914.38 458.277L1950.78 398.844L2016.42 449.03C2015.95 449.845 2015.7 450.779 2015.7 451.731L1916.07 461.571ZM1699.83 130.914L1708.76 76.4954C1709.54 76.5782 1710.34 76.4666 1711.07 76.1698C1711.44 76.021 1711.79 75.8264 1712.11 75.5904L1726.13 89.328L1700.68 131.207C1700.41 131.083 1700.12 130.985 1699.83 130.914ZM1503.32 29.1007C1504 28.705 1504.58 28.1533 1505.01 27.4887C1505.44 26.8242 1505.72 26.0648 1505.82 25.2701L1539.14 26.4384L1532.2 90.9225C1531.61 90.9367 1531.03 91.055 1530.49 91.2721L1503.32 29.1007ZM1533.1 90.9561L1540.04 26.4432L1643.68 30.0775C1643.71 30.6237 1643.82 31.1617 1644.01 31.672C1644.01 31.7295 1644.07 31.7822 1644.09 31.8396L1536.4 93.106C1536.01 92.5387 1535.52 92.0563 1534.96 91.6871C1534.39 91.318 1533.76 91.0694 1533.1 90.9561ZM1993.97 321.638C1994.05 321.855 1994.15 322.067 1994.27 322.27L1924.55 371.9C1924.1 371.342 1923.54 370.888 1922.91 370.568C1922.28 370.248 1921.59 370.069 1920.88 370.042L1917.34 305.362L1993.64 319.325C1993.58 320.115 1993.69 320.909 1993.97 321.647V321.638ZM1919.94 370.095C1919.57 370.152 1919.2 370.252 1918.85 370.392C1918.49 370.542 1918.15 370.733 1917.83 370.962L1856.59 295.417C1856.95 295.144 1857.28 294.821 1857.56 294.459L1916.4 305.218L1919.94 370.095ZM1858.07 293.568C1858.36 292.971 1858.54 292.32 1858.59 291.653L1905.75 266.845L1910.32 264.451C1910.74 265.152 1911.33 265.738 1912.02 266.159C1912.7 266.58 1913.48 266.823 1914.28 266.869L1916.33 304.218L1858.07 293.568ZM1909.89 263.57L1905.35 265.964L1858.56 290.576C1858.51 290.153 1858.41 289.739 1858.26 289.34C1858.02 288.691 1857.65 288.1 1857.18 287.602L1874.27 246.284L1909.76 260.347C1909.47 261.409 1909.52 262.539 1909.89 263.57ZM1993.81 318.401L1917.3 304.39L1915.24 266.816C1915.64 266.761 1916.04 266.657 1916.42 266.505C1917.2 266.188 1917.9 265.672 1918.43 265.006L1994.24 317.285C1994.06 317.639 1993.91 318.013 1993.81 318.401ZM1914.38 151.825L1914.06 256.521C1913.62 256.572 1913.19 256.681 1912.77 256.847C1911.59 257.326 1910.62 258.257 1910.08 259.447L1874.64 245.403L1913.35 151.6C1913.69 151.712 1914.03 151.787 1914.38 151.825ZM1873.75 245.058L1832.52 228.716C1832.73 227.712 1832.65 226.665 1832.29 225.709C1832.15 225.33 1831.96 224.97 1831.73 224.636L1880.14 179.626L1911.46 150.494C1911.77 150.787 1912.11 151.04 1912.48 151.246L1873.75 245.058ZM1843.85 -105.503L1834.51 -58.8748L1828.74 -30.054C1827.54 -30.1959 1826.34 -29.8866 1825.35 -29.1829C1824.35 -28.4792 1823.64 -27.4283 1823.33 -26.2234L1798.85 -30.4132L1843.13 -105.781C1843.36 -105.667 1843.6 -105.574 1843.85 -105.503ZM1758.43 114.361L1764.84 31.8683C1765.44 31.8604 1766.04 31.7404 1766.61 31.514C1767.57 31.1229 1768.39 30.4319 1768.96 29.5365L1794.97 41.9382L1759.41 114.649C1759.09 114.52 1758.76 114.423 1758.43 114.361ZM1769.39 28.7081C1769.9 27.4643 1769.92 26.0632 1769.44 24.8056C1769.32 24.482 1769.17 24.1723 1768.98 23.8815L1824.54 -21.3202C1824.83 -21.0071 1825.15 -20.7321 1825.51 -20.5014L1795.38 41.1002L1769.39 28.7081ZM1823.19 -25.2753C1823.13 -24.5043 1823.24 -23.7299 1823.51 -23.0104C1823.64 -22.6877 1823.79 -22.3782 1823.98 -22.0863L1804.13 -5.94971L1768.4 23.0914C1768.21 22.8838 1768 22.6932 1767.77 22.5216L1798.35 -29.5321L1823.19 -25.2753ZM1766.97 22.0284C1766.35 21.7124 1765.67 21.5339 1764.98 21.5042C1764.29 21.4745 1763.59 21.5943 1762.95 21.856C1762.41 22.0709 1761.92 22.3821 1761.49 22.7753L1692.31 -45.64C1692.74 -46.2049 1693.05 -46.8572 1693.23 -47.5553L1797.36 -29.7093L1766.97 22.0284ZM1690.21 -44.0263C1690.74 -44.2462 1691.24 -44.557 1691.67 -44.9457L1760.85 23.4649C1760.22 24.2881 1759.85 25.2898 1759.78 26.3378L1702.18 27.8749L1689.72 -43.8587C1689.89 -43.9066 1690.05 -43.9641 1690.21 -44.0263ZM1759.81 27.3195C1759.85 27.7595 1759.96 28.1911 1760.11 28.6027C1760.16 28.7286 1760.21 28.8517 1760.27 28.9714L1713.07 67.9722C1712.55 67.3473 1711.9 66.8585 1711.16 66.5463C1710.43 66.2341 1709.63 66.1073 1708.84 66.1766L1702.36 28.8278L1759.81 27.3195ZM1713.93 69.4565C1713.83 69.2154 1713.72 68.9818 1713.6 68.7575L1760.76 29.7806C1761.03 30.168 1761.36 30.513 1761.73 30.8053L1726.67 88.4997L1712.86 74.9679C1713.53 74.2514 1713.99 73.3493 1714.18 72.3699C1714.37 71.3905 1714.28 70.3756 1713.93 69.447V69.4565ZM1762.51 31.3177C1762.87 31.5064 1763.26 31.651 1763.65 31.7486L1757.49 114.285C1756.3 114.297 1755.15 114.755 1754.25 115.573L1727.32 89.1748L1762.51 31.3177ZM1825.79 222.783L1825.59 222.879L1787.18 164.05L1760.72 123.488C1761.54 122.795 1762.12 121.855 1762.39 120.802L1850.47 136.028L1828.74 222.563C1827.76 222.325 1826.74 222.398 1825.8 222.773L1825.79 222.783ZM1762.05 117.134C1761.63 116.291 1761.01 115.581 1760.23 115.08L1795.81 42.3404L1861.46 73.6463C1861.12 74.6658 1861.08 75.7729 1861.38 76.8114L1762.05 117.134ZM1861.85 72.7605L1796.23 41.4737L1826.34 -20.0991C1827.37 -19.6716 1828.51 -19.6143 1829.58 -19.9363L1863.94 70.7255C1863.07 71.1764 1862.34 71.8842 1861.85 72.7605ZM1832.85 -26.8124C1832.57 -27.5395 1832.14 -28.1926 1831.59 -28.7225C1831.03 -29.2524 1830.37 -29.6454 1829.65 -29.8721L1833.86 -50.888L1844.76 -105.331C1844.97 -105.311 1845.17 -105.303 1845.38 -105.307L1855.05 -19.4671L1830.85 -20.5301C1831.83 -21.1727 1832.57 -22.1494 1832.93 -23.2929C1833.3 -24.4364 1833.27 -25.6755 1832.85 -26.798V-26.8124ZM1840.81 -108.113C1841.17 -107.382 1841.69 -106.752 1842.34 -106.274L1797.88 -30.5951L1693.38 -48.4842C1693.42 -49.0739 1693.36 -49.6666 1693.21 -50.2367L1840.81 -108.113ZM1688.81 -43.6911L1701.24 27.9036L1653.66 29.1869C1653.58 28.4295 1653.33 27.7011 1652.94 27.0544C1652.55 26.4077 1652.02 25.8588 1651.4 25.4472L1686.48 -44.0742C1687.22 -43.7576 1688.01 -43.6263 1688.81 -43.6911ZM1653.68 30.1446L1701.41 28.8709L1707.93 66.3537C1707.76 66.4018 1707.59 66.4594 1707.43 66.5261C1706.62 66.854 1705.91 67.3974 1705.36 68.1015L1653.1 32.237C1653.43 31.5892 1653.63 30.8765 1653.68 30.1446ZM1701.5 131.657L1726.83 89.9984L1753.63 116.267C1753.2 116.834 1752.89 117.487 1752.71 118.185C1752.54 118.884 1752.51 119.612 1752.63 120.323L1703.27 133.797C1702.89 132.927 1702.27 132.186 1701.5 131.657ZM1703.59 134.697L1752.87 121.242C1752.87 121.28 1752.87 121.319 1752.9 121.357C1753.39 122.633 1754.34 123.659 1755.56 124.209C1756.77 124.759 1758.15 124.789 1759.38 124.292C1759.59 124.205 1759.79 124.106 1759.98 123.995L1819.17 214.71L1824.79 223.329C1824.51 223.527 1824.25 223.755 1824.02 224.009L1703.22 138.298C1703.76 137.184 1703.89 135.906 1703.59 134.702V134.697ZM1832.24 229.625L1873.39 245.934L1856.46 286.965C1855.82 286.51 1855.08 286.216 1854.31 286.105C1853.54 285.995 1852.76 286.071 1852.02 286.329L1830.31 231.972C1831.17 231.411 1831.84 230.594 1832.24 229.63V229.625ZM1925.37 373.332C1925.29 373.114 1925.19 372.903 1925.07 372.7L1994.79 323.064C1995.02 323.357 1995.29 323.621 1995.58 323.85L1950.53 397.436L1924.99 377.91C1925.39 377.229 1925.63 376.462 1925.7 375.669C1925.76 374.876 1925.65 374.078 1925.37 373.337V373.332ZM2018.88 446.861C2018.14 447.159 2017.49 447.632 2016.97 448.24L1951.27 398.006L1996.35 324.362C1997.17 324.799 1998.1 324.991 1999.02 324.917L2019.38 446.684C2019.21 446.735 2019.04 446.795 2018.88 446.866V446.861ZM1995.98 315.35C1995.51 315.656 1995.09 316.039 1994.74 316.485L1918.95 264.221C1919.2 263.742 1919.39 263.225 1919.49 262.689L1973.16 268.502L1995.98 315.35ZM1919.61 261.736C1919.62 260.419 1919.15 259.146 1918.3 258.175C1917.44 257.204 1916.25 256.608 1914.98 256.507L1915.33 151.83C1915.64 151.799 1915.95 151.738 1916.26 151.648L1972.68 267.487L1919.61 261.736ZM1910.19 148.559C1910.36 148.986 1910.58 149.389 1910.84 149.756L1831.13 223.903C1830.7 223.464 1830.2 223.11 1829.65 222.86L1851.39 136.191L1909.85 146.299C1909.8 147.07 1909.92 147.841 1910.19 148.559ZM1850.72 135.09L1762.56 119.844C1762.61 119.233 1762.55 118.618 1762.38 118.029L1861.71 77.702C1862.29 78.8875 1863.28 79.7981 1864.49 80.2446L1850.72 135.09ZM1864.8 70.3903L1830.7 -19.5629L1855.15 -18.4903L1865.15 70.3041C1865.01 70.328 1864.92 70.3663 1864.8 70.3903ZM1846.29 -105.403C1846.56 -105.464 1846.82 -105.545 1847.08 -105.647C1847.34 -105.753 1847.59 -105.882 1847.83 -106.03L1910.9 -16.9963L1855.97 -19.3905L1846.29 -105.403ZM1840.27 -110.057C1840.3 -109.769 1840.35 -109.484 1840.42 -109.205L1840.25 -108.903L1692.89 -51.1322C1692.41 -52.1519 1691.62 -52.9799 1690.64 -53.488L1712.61 -111.589L1840.27 -110.057ZM1636.76 -117.771L1696.59 -112.197C1696.59 -111.555 1696.71 -110.918 1696.94 -110.32C1697.08 -109.934 1697.27 -109.568 1697.51 -109.229L1664.04 -79.68L1635.4 -115.056C1636.11 -115.799 1636.58 -116.745 1636.76 -117.771ZM1698.1 -108.496C1698.67 -107.933 1699.35 -107.512 1700.09 -107.265L1688.99 -54.0051C1687.77 -54.1602 1686.54 -53.8447 1685.54 -53.1193L1664.63 -78.9474L1698.1 -108.496ZM1684.82 -52.5064C1684.35 -52.0076 1683.97 -51.4132 1683.72 -50.7596C1683.47 -50.106 1683.35 -49.4068 1683.38 -48.7045L1624.98 -41.297C1624.93 -41.644 1624.83 -41.984 1624.71 -42.3121C1624.59 -42.6459 1624.43 -42.9666 1624.25 -43.2698L1663.95 -78.3154L1684.82 -52.5064ZM1625.05 -40.3393L1675.57 -46.7509L1622.73 -36.0394C1623.43 -36.501 1624.01 -37.1355 1624.41 -37.8859C1624.82 -38.6363 1625.04 -39.4793 1625.05 -40.3393ZM1683.57 -47.3973C1683.62 -47.2488 1683.66 -47.1052 1683.71 -46.9615C1684.1 -45.9525 1684.78 -45.0935 1685.66 -44.5051L1650.58 24.9875C1649.46 24.5085 1648.21 24.4683 1647.06 24.8746C1645.92 25.2808 1644.95 26.1056 1644.35 27.195L1549.35 -17.9684C1549.57 -18.7004 1549.64 -19.4737 1549.53 -20.2332L1683.57 -47.3973ZM1643.96 28.0664C1643.84 28.4104 1643.76 28.7668 1643.71 29.1294L1540.16 25.4951L1544.46 -14.3292C1545.12 -14.315 1545.78 -14.4371 1546.4 -14.6884C1547.51 -15.1386 1548.43 -15.9884 1548.99 -17.0825L1643.96 28.0664ZM1543.56 -14.4442L1539.26 25.4664L1505.87 24.2932C1505.84 23.7486 1505.73 23.2121 1505.54 22.7035C1505.35 22.206 1505.09 21.7411 1504.76 21.3245L1541.25 -15.6556C1541.9 -15.0533 1542.69 -14.6358 1543.54 -14.4442H1543.56ZM1496.18 26.4911C1496.65 27.7362 1497.57 28.7438 1498.75 29.3033C1499.92 29.8628 1501.26 29.9309 1502.48 29.4933L1529.51 91.3918L1444.59 -36.6044L1497.1 21.1665C1496.48 21.8803 1496.08 22.7554 1495.91 23.6951C1495.75 24.6348 1495.84 25.6024 1496.18 26.4911ZM1442.62 -36.6523C1442.83 -36.7393 1443.03 -36.8401 1443.23 -36.954L1528.94 92.2297C1528.39 92.7472 1527.95 93.387 1527.67 94.102L1464.91 72.7605L1442.29 -36.5326C1442.4 -36.5709 1442.51 -36.6044 1442.62 -36.6523ZM1536.97 94.1882C1536.93 94.102 1536.89 94.0206 1536.86 93.9392L1644.54 32.6919C1644.96 33.3271 1645.5 33.8587 1646.14 34.2487C1646.78 34.6386 1647.5 34.8771 1648.24 34.9472V79.3875L1537.19 94.9112C1537.14 94.6648 1537.06 94.4232 1536.97 94.1882ZM1649.15 34.9329C1649.63 34.8922 1650.09 34.7792 1650.54 34.5977C1651.35 34.2698 1652.06 33.7264 1652.61 33.0223L1704.89 68.8724C1704.47 69.6903 1704.26 70.6116 1704.3 71.5395L1649.19 79.2439L1649.15 34.9329ZM1704.38 72.4924C1704.44 72.7396 1704.51 72.9827 1704.59 73.2202C1704.98 74.2414 1705.67 75.1074 1706.57 75.6909L1650.56 188.259C1650.11 188.074 1649.65 187.954 1649.17 187.905V80.2255L1704.38 72.4924ZM1651.38 188.7L1707.39 76.1458C1707.54 76.2081 1707.69 76.2655 1707.85 76.3134L1698.91 130.795C1698.23 130.774 1697.55 130.895 1696.92 131.149C1695.69 131.652 1694.7 132.64 1694.16 133.896C1693.63 135.152 1693.6 136.574 1694.08 137.853C1694.31 138.445 1694.64 138.989 1695.05 139.457L1651.71 188.925C1651.61 188.843 1651.5 188.768 1651.38 188.7ZM1702.74 139.102L1823.44 224.77C1822.8 225.784 1822.52 226.999 1822.66 228.203C1822.79 229.407 1823.33 230.524 1824.18 231.359L1776.25 294.224C1775.6 293.786 1774.85 293.511 1774.08 293.422C1773.31 293.333 1772.52 293.432 1771.79 293.712L1701 140.611C1701.68 140.254 1702.27 139.737 1702.73 139.102H1702.74ZM1778.2 296.681C1777.93 295.975 1777.52 295.339 1776.99 294.818L1823.83 233.336L1787.93 296.772L1778.44 297.643C1778.39 297.315 1778.31 296.992 1778.19 296.681H1778.2ZM1825.51 232.297C1826.13 232.598 1826.8 232.765 1827.48 232.788C1828.16 232.811 1828.83 232.689 1829.46 232.431H1829.51L1851.18 286.74C1850.41 287.188 1849.76 287.841 1849.31 288.632C1848.86 289.423 1848.62 290.323 1848.62 291.241L1789.08 296.69L1825.51 232.297ZM1848.7 292.175C1848.76 292.502 1848.84 292.823 1848.96 293.133C1849.06 293.402 1849.19 293.662 1849.34 293.908L1748.42 370.737C1748.17 370.452 1747.89 370.195 1747.59 369.971L1788.5 297.667L1848.7 292.175ZM1853.79 296.422C1854.37 296.409 1854.94 296.291 1855.48 296.073C1855.6 296.025 1855.71 295.967 1855.82 295.915L1917.18 371.57C1916.37 372.418 1915.87 373.526 1915.75 374.711L1848.9 374.309L1853.79 296.422ZM1920.64 380.419C1921.36 380.433 1922.08 380.285 1922.74 379.986C1923.4 379.687 1923.99 379.243 1924.47 378.685L1950.06 398.25L1913.62 457.74C1913.2 457.488 1912.75 457.299 1912.28 457.18L1920.64 380.419ZM1916.13 462.538L2015.82 452.665C2015.88 452.98 2015.96 453.289 2016.07 453.589C2016.32 454.248 2016.7 454.848 2017.18 455.35C2017.67 455.853 2018.24 456.247 2018.88 456.51L2010.38 486.245L1916.05 463.218C1916.08 462.99 1916.1 462.759 1916.1 462.529L1916.13 462.538ZM2011.02 487.385L2072.95 502.501C2072.83 503.385 2072.93 504.286 2073.25 505.116C2073.32 505.316 2073.41 505.511 2073.51 505.7L2008.45 550.94L1992.07 562.336C1991.52 561.641 1990.8 561.108 1989.99 560.789L2011.02 487.385ZM1992.92 563.739C1992.84 563.529 1992.75 563.325 1992.64 563.126L2074.03 506.5C2074.21 506.724 2074.4 506.933 2074.62 507.127L2019.37 586.297L1992.64 568.144C1992.99 567.474 1993.2 566.732 1993.24 565.971C1993.28 565.209 1993.17 564.447 1992.89 563.739H1992.92ZM2019.55 587.599L2098.9 641.482C2098.51 642.24 2098.31 643.086 2098.31 643.943L1975.28 656.484C1975.26 655.9 1975.14 655.323 1974.94 654.779C1974.7 654.138 1974.33 653.554 1973.87 653.06L2019.55 587.599ZM1974.61 659.271C1974.92 658.708 1975.13 658.091 1975.23 657.451L2098.4 644.896C2098.46 645.207 2098.55 645.511 2098.66 645.806C2098.93 646.535 2099.36 647.19 2099.92 647.721L2058.42 703.586L1974.61 659.271ZM2100.67 648.315C2101.38 648.773 2102.18 649.044 2103.01 649.105L2104.9 723.803C2104.67 723.858 2104.44 723.93 2104.21 724.018C2103.08 724.476 2102.15 725.349 2101.59 726.47L2059.24 704.07L2100.67 648.315ZM2107.06 723.75L2121.62 653.625L2154.65 670.178C2154.2 671.374 2154.2 672.699 2154.65 673.894C2154.85 674.417 2155.14 674.902 2155.49 675.331L2108.98 724.621C2108.41 724.189 2107.76 723.886 2107.06 723.731V723.75ZM2158.27 666.932C2158.01 666.99 2157.75 667.069 2157.5 667.167C2156.48 667.585 2155.62 668.34 2155.05 669.316L2121.81 652.624L2143.59 547.65C2143.84 547.679 2144.08 547.689 2144.33 547.679L2158.27 666.932ZM2090.1 483.257C2089.74 484.402 2089.77 485.641 2090.2 486.762C2090.41 487.31 2090.71 487.818 2091.08 488.266L2080.99 499.178C2080.04 498.4 2078.86 498.002 2077.65 498.059C2076.44 498.116 2075.29 498.625 2074.42 499.49L2024.77 454.743C2024.89 454.57 2025 454.389 2025.1 454.202L2090.1 483.257ZM2022.03 446.718C2021.47 446.557 2020.89 446.498 2020.31 446.545L1999.95 324.779C2000.13 324.727 2000.3 324.667 2000.47 324.597C2001.68 324.108 2002.66 323.154 2003.2 321.936C2003.74 320.718 2003.8 319.33 2003.37 318.065L2078.68 282.488C2079.18 283.393 2079.93 284.121 2080.83 284.576L2022.03 446.718ZM2078.75 277.221C2078.44 277.74 2078.22 278.31 2078.11 278.907L1973.74 267.606L1917.99 153.089L2078.75 277.221ZM1911.61 142.727C1910.83 143.411 1910.28 144.323 1910.02 145.342L1851.64 135.248L1865.38 80.4888C1866.52 80.6933 1867.69 80.4709 1868.69 79.8616L1911.61 142.727ZM1868.06 70.5627C1867.43 70.3023 1866.75 70.1754 1866.07 70.1892L1856.09 -18.4472L1911.11 -16.0291L1868.06 70.5627ZM1879.96 -179.497C1880.75 -179.132 1881.61 -178.982 1882.47 -179.061L1911.03 -18.4424L1848.56 -106.595C1849.34 -107.307 1849.89 -108.253 1850.13 -109.302C1850.37 -110.35 1850.28 -111.449 1849.89 -112.445C1849.49 -113.442 1848.81 -114.286 1847.93 -114.861C1847.05 -115.437 1846.02 -115.714 1844.98 -115.655L1879.96 -179.497ZM1741.48 -190.596L1711.98 -112.547L1706.59 -112.614C1706.56 -113.12 1706.44 -113.617 1706.26 -114.089C1705.88 -115.102 1705.19 -115.963 1704.31 -116.55L1741.48 -190.596ZM1631.51 -113.505C1632.63 -113.425 1633.75 -113.747 1634.67 -114.414L1663.31 -79.0288L1623.65 -44.0263C1623 -44.7258 1622.18 -45.2234 1621.27 -45.4628L1631.51 -113.505ZM1615.42 -38.4384C1615.74 -37.6339 1616.25 -36.9261 1616.9 -36.3804C1617.56 -35.8347 1618.34 -35.4688 1619.16 -35.3164L1558.88 -23.1014L1615.42 -38.4384ZM1436.89 -38.2229C1437.42 -37.5398 1438.11 -37.008 1438.9 -36.6772C1439.69 -36.3465 1440.54 -36.2275 1441.38 -36.3315L1463.89 72.4205L1341.9 30.9442C1342.12 29.9261 1342.05 28.861 1341.68 27.8893C1341.6 27.6981 1341.52 27.5111 1341.42 27.329L1436.89 -38.2229ZM1341.25 32.5387C1341.38 32.3241 1341.5 32.1001 1341.6 31.8683L1464.11 73.5266L1477.02 135.909L1476.75 136C1475.95 136.323 1475.25 136.854 1474.71 137.542L1341.25 32.5387ZM1482.37 137.403C1481.83 136.762 1481.14 136.27 1480.37 135.971C1479.59 135.671 1478.76 135.575 1477.95 135.688L1465.15 73.8714L1527.41 95.0357C1527.21 96.0247 1527.29 97.0536 1527.65 97.9949C1527.77 98.3066 1527.91 98.605 1528.09 98.8855L1482.37 137.403ZM1536.41 99.0962C1537.05 98.1588 1537.38 97.0274 1537.33 95.8784L1648.26 80.3739V187.905C1647.06 188.011 1645.95 188.564 1645.12 189.461L1536.41 99.0962ZM1775.37 303.423C1776.3 303.045 1777.11 302.387 1777.67 301.534C1778.24 300.68 1778.55 299.67 1778.56 298.634L1787.38 297.825L1747.31 368.573L1772.12 303.557C1773.19 303.879 1774.32 303.825 1775.35 303.404L1775.37 303.423ZM1749.31 376.205C1749.5 375.729 1749.62 375.228 1749.67 374.716L1847.9 375.3L1844.83 424.141C1844.25 424.154 1843.68 424.272 1843.14 424.49C1842.17 424.885 1841.35 425.579 1840.78 426.477L1749.31 376.205ZM1849.66 431.136C1850.1 429.944 1850.09 428.626 1849.63 427.44C1849.55 427.219 1849.45 427.005 1849.34 426.798L1916.89 378.58C1917.61 379.478 1918.61 380.095 1919.72 380.333L1911.39 457.056C1910.48 457.005 1909.58 457.212 1908.77 457.654C1907.97 458.097 1907.3 458.757 1906.84 459.565L1849.66 431.136ZM1914.44 466.091C1915.01 465.564 1915.46 464.909 1915.75 464.176L2010.08 487.203L1989.11 560.569C1988.19 560.396 1987.25 560.49 1986.39 560.842C1986.07 560.967 1985.76 561.128 1985.46 561.321L1914.44 466.091ZM1987.59 570.802C1988.43 570.912 1989.28 570.801 1990.07 570.479C1990.85 570.157 1991.54 569.633 1992.08 568.958L2018.79 587.096L1973.18 652.462C1972.76 652.158 1972.3 651.922 1971.82 651.763L1987.59 570.802ZM2031.47 745.762C2031.42 745.471 2031.34 745.186 2031.23 744.909C2030.99 744.266 2030.62 743.678 2030.16 743.181L2058.67 704.827L2101.23 727.332C2101.02 728.058 2100.97 728.823 2101.08 729.573L2031.47 745.762Z" fill="url(#paint1_linear_17_604)"/>
</g>
</g>
<defs>
<linearGradient id="paint0_linear_17_604" x1="1428.92" y1="-116.041" x2="1898.47" y2="897.511" gradientUnits="userSpaceOnUse">
<stop stop-color="#FDF065"/>
<stop offset="0.921875" stop-color="white" stop-opacity="0"/>
</linearGradient>
<linearGradient id="paint1_linear_17_604" x1="1332" y1="-204" x2="1932.56" y2="880.358" gradientUnits="userSpaceOnUse">
<stop stop-color="#FDF065"/>
<stop offset="0.921875" stop-color="white" stop-opacity="0"/>
</linearGradient>
</defs>
</svg>
