<svg width="40" height="40" viewBox="0 0 40 40" fill="none" xmlns="http://www.w3.org/2000/svg">
<g clip-path="url(#clip0_66_4925)">
<circle cx="20" cy="20" r="20" fill="#E7DB59"/>
<path d="M20 30C25.5229 30 30 25.5229 30 20C30 14.4771 25.5229 10 20 10C14.4771 10 10 14.4771 10 20C10 25.5229 14.4771 30 20 30Z" fill="#232323"/>
<path fill-rule="evenodd" clip-rule="evenodd" d="M9.25 20C9.25 14.0629 14.0629 9.25 20 9.25C25.9371 9.25 30.75 14.0629 30.75 20C30.75 25.9371 25.9371 30.75 20 30.75C14.0629 30.75 9.25 25.9371 9.25 20ZM20 10.75C14.8914 10.75 10.75 14.8914 10.75 20C10.75 25.1086 14.8914 29.25 20 29.25C25.1086 29.25 29.25 25.1086 29.25 20C29.25 14.8914 25.1086 10.75 20 10.75Z" fill="#232323"/>
<path fill-rule="evenodd" clip-rule="evenodd" d="M23.5 16.25C23.9142 16.25 24.25 16.5858 24.25 17V17.5C24.25 17.9142 23.9142 18.25 23.5 18.25C23.0858 18.25 22.75 17.9142 22.75 17.5V17C22.75 16.5858 23.0858 16.25 23.5 16.25Z" fill="#E7DB59"/>
<path fill-rule="evenodd" clip-rule="evenodd" d="M16.5 16.25C16.9142 16.25 17.25 16.5858 17.25 17V17.5C17.25 17.9142 16.9142 18.25 16.5 18.25C16.0858 18.25 15.75 17.9142 15.75 17.5V17C15.75 16.5858 16.0858 16.25 16.5 16.25Z" fill="#E7DB59"/>
<path fill-rule="evenodd" clip-rule="evenodd" d="M15.75 23.5C15.75 23.0858 16.0858 22.75 16.5 22.75H23.5C23.9142 22.75 24.25 23.0858 24.25 23.5C24.25 23.9142 23.9142 24.25 23.5 24.25H16.5C16.0858 24.25 15.75 23.9142 15.75 23.5Z" fill="#E7DB59"/>
</g>
<defs>
<clipPath id="clip0_66_4925">
<rect width="40" height="40" fill="white"/>
</clipPath>
</defs>
</svg>
