<svg width="568" height="704" viewBox="0 0 568 704" fill="none" xmlns="http://www.w3.org/2000/svg">
<mask id="mask0_15_194" style="mask-type:alpha" maskUnits="userSpaceOnUse" x="0" y="0" width="568" height="704">
<rect width="568" height="704" rx="8" fill="#D9D9D9"/>
</mask>
<g mask="url(#mask0_15_194)">
<g opacity="0.3">
<path d="M887.074 432.983C886.372 433.517 885.568 433.889 884.716 434.075C883.864 434.26 882.983 434.254 882.134 434.057C881.284 433.86 880.485 433.477 879.79 432.933C879.096 432.389 878.523 431.697 878.109 430.905L701.561 516.27L701.625 516.578L701.152 516.467L699.704 517.165L700.394 516.29L588.023 490.276C587.749 491.259 587.25 492.158 586.566 492.897C585.883 493.635 585.037 494.192 584.101 494.518C583.165 494.844 582.166 494.931 581.19 494.77C580.214 494.609 579.291 494.206 578.499 493.595L519.962 565.427C520.575 566.036 521.059 566.77 521.383 567.583C521.707 568.395 521.864 569.269 521.844 570.148C521.824 571.027 521.627 571.892 521.267 572.688C520.906 573.484 520.389 574.194 519.749 574.771C519.108 575.349 518.359 575.783 517.548 576.045C516.737 576.306 515.882 576.39 515.037 576.291C514.193 576.192 513.378 575.913 512.644 575.47C511.91 575.027 511.273 574.431 510.774 573.72C510.4 573.183 510.108 572.59 509.909 571.962L390.291 603.791C390.51 604.862 390.456 605.974 390.135 607.017C389.814 608.059 389.237 608.998 388.46 609.741C387.683 610.484 386.733 611.005 385.703 611.253C384.673 611.502 383.599 611.47 382.584 611.16L346.276 719.947C347.452 720.459 348.444 721.338 349.114 722.462C349.784 723.585 350.097 724.898 350.011 726.215C349.924 727.532 349.442 728.789 348.632 729.809C347.822 730.828 346.724 731.561 345.491 731.903C344.259 732.245 342.954 732.18 341.759 731.717C340.565 731.254 339.54 730.416 338.827 729.321C338.115 728.225 337.752 726.927 337.788 725.607C337.824 724.287 338.258 723.012 339.029 721.96L260.895 652.012C260.66 652.26 260.406 652.488 260.137 652.694C259.312 653.317 258.349 653.716 257.336 653.855C256.324 653.993 255.294 653.867 254.341 653.488C253.388 653.108 252.541 652.488 251.88 651.682C251.218 650.877 250.762 649.913 250.553 648.879L160.37 662.334C160.43 663.633 160.101 664.92 159.43 666.02C158.758 667.12 157.776 667.979 156.616 668.481C155.456 668.983 154.175 669.103 152.947 668.826C151.719 668.548 150.603 667.886 149.751 666.929C148.899 665.973 148.352 664.768 148.184 663.478C148.017 662.189 148.237 660.878 148.815 659.722C149.392 658.567 150.3 657.623 151.414 657.02C152.527 656.416 153.794 656.182 155.04 656.35L169.879 577.712C168.357 577.294 167.049 576.286 166.226 574.896C165.404 573.506 165.132 571.842 165.465 570.249C165.798 568.657 166.712 567.258 168.016 566.345C169.32 565.431 170.914 565.073 172.466 565.345L201.695 438.006C200.598 437.657 199.618 436.996 198.866 436.099C198.115 435.201 197.622 434.103 197.445 432.929C197.268 431.756 197.413 430.554 197.864 429.462C198.315 428.37 199.054 427.431 199.996 426.753C200.938 426.074 202.045 425.684 203.192 425.626C204.338 425.568 205.477 425.844 206.479 426.424C207.48 427.004 208.304 427.864 208.856 428.905C209.408 429.946 209.666 431.127 209.601 432.313L292.711 442.778C292.922 441.64 293.43 440.583 294.181 439.723C294.932 438.864 295.897 438.234 296.971 437.903C298.044 437.573 299.185 437.554 300.268 437.849C301.351 438.143 302.335 438.74 303.113 439.575L456.119 305.803L456.377 306.12C455.834 305.354 455.465 304.471 455.296 303.538C455.127 302.604 455.163 301.643 455.402 300.726C455.64 299.809 456.075 298.959 456.674 298.239C457.273 297.519 458.02 296.947 458.861 296.567C459.702 296.186 460.614 296.006 461.532 296.039C462.449 296.073 463.347 296.32 464.16 296.761C464.973 297.202 465.679 297.827 466.227 298.589C466.775 299.35 467.151 300.23 467.326 301.162L532.272 295.33C532.271 295.009 532.293 294.687 532.34 294.369L386.589 260.56C386.243 261.781 385.55 262.866 384.6 263.673C383.65 264.481 382.487 264.973 381.263 265.087C380.039 265.201 378.81 264.93 377.736 264.311C376.662 263.691 375.794 262.751 375.244 261.614C374.693 260.476 374.487 259.194 374.651 257.933C374.816 256.672 375.343 255.492 376.165 254.546C376.986 253.599 378.064 252.931 379.258 252.628C380.452 252.325 381.707 252.401 382.858 252.847L452.587 92.0348C451.831 91.5872 451.175 90.9778 450.665 90.2472C450.155 89.5166 449.802 88.6817 449.629 87.7983C449.456 86.9149 449.467 86.0035 449.662 85.125C449.857 84.2464 450.231 83.4211 450.759 82.7043C451.286 81.9873 451.956 81.3955 452.723 80.9682C453.49 80.5409 454.336 80.2879 455.205 80.2264C456.074 80.1649 456.946 80.2962 457.762 80.6115C458.578 80.9267 459.319 81.4187 459.936 82.0545L522.577 29.6895C521.951 28.7718 521.571 27.6983 521.478 26.579C521.385 25.4597 521.581 24.3349 522.047 23.3199C522.512 22.305 523.23 21.4364 524.127 20.8034C525.024 20.1704 526.067 19.7957 527.15 19.7177C528.233 19.6397 529.317 19.8612 530.29 20.3596C531.263 20.858 532.09 21.6153 532.687 22.5537C533.284 23.4922 533.629 24.578 533.686 25.6999C533.744 26.8218 533.512 27.9394 533.014 28.9379L586.471 62.1764C586.994 61.437 587.664 60.8236 588.437 60.3783C589.21 59.933 590.068 59.6663 590.95 59.5967C591.832 59.5271 592.719 59.6562 593.548 59.975C594.377 60.2939 595.13 60.795 595.755 61.4438C596.379 62.0926 596.86 62.8738 597.165 63.7335C597.469 64.5932 597.59 65.511 597.519 66.4237C597.448 67.3365 597.187 68.2224 596.754 69.0207C596.32 69.8189 595.724 70.5104 595.008 71.0476L594.929 71.101L635.658 146.195C636.514 145.719 637.467 145.462 638.439 145.445C639.41 145.427 640.371 145.65 641.242 146.095C642.113 146.54 642.869 147.194 643.447 148.002C644.025 148.81 644.408 149.749 644.564 150.741L725.448 142.313C725.407 141.114 725.697 139.928 726.282 138.893C726.868 137.857 727.726 137.015 728.756 136.464C729.786 135.914 730.946 135.677 732.101 135.783C733.256 135.888 734.358 136.33 735.279 137.059C736.2 137.787 736.903 138.771 737.304 139.897C737.706 141.022 737.791 142.243 737.548 143.416C737.306 144.589 736.746 145.667 735.935 146.524C735.123 147.381 734.093 147.982 732.965 148.256L745.033 223.103C745.966 223.005 746.908 223.129 747.787 223.468C748.666 223.806 749.458 224.35 750.101 225.056C750.745 225.762 751.223 226.612 751.498 227.539C751.773 228.467 751.838 229.448 751.689 230.406L852.094 254.104C852.445 252.876 853.146 251.787 854.106 250.98C855.065 250.173 856.239 249.686 857.472 249.582C858.704 249.479 859.938 249.764 861.011 250.4C862.084 251.036 862.946 251.994 863.483 253.147C864.02 254.3 864.207 255.594 864.02 256.859C863.832 258.124 863.279 259.301 862.433 260.234C861.587 261.168 860.488 261.814 859.28 262.089C858.072 262.363 856.812 262.252 855.666 261.771L790.978 400.126C791.963 400.688 792.771 401.53 793.307 402.553L877.712 425.836C878.019 424.892 878.538 424.037 879.225 423.339C879.913 422.642 880.749 422.122 881.667 421.822C882.585 421.522 883.559 421.45 884.509 421.612C885.459 421.775 886.358 422.167 887.134 422.757C887.91 423.347 888.54 424.118 888.974 425.008C889.407 425.897 889.632 426.88 889.63 427.876C889.627 428.873 889.398 429.854 888.96 430.742C888.522 431.629 887.888 432.397 887.109 432.983H887.074ZM701.319 515.124L783.763 410.283C783.183 409.726 782.712 409.058 782.378 408.316L687.048 446.704L701.319 515.124ZM675.237 233.917C674.973 235.397 674.208 236.731 673.078 237.679L784.481 400.147L784.771 400.225C785.18 399.971 785.615 399.767 786.069 399.617L748.47 242.912L675.237 233.917ZM675.305 232.09L739.529 229.264C739.55 228.157 739.853 227.075 740.406 226.126L696.223 194.206L673.082 227.859C673.495 228.202 673.862 228.6 674.174 229.042C674.801 229.936 675.191 230.984 675.305 232.082V232.09ZM672.431 238.156C671.742 238.597 670.974 238.891 670.173 239.022L681.936 372.445L782.155 403.531C782.518 402.474 783.146 401.536 783.973 400.812L672.431 238.156ZM663.181 231.749L573.046 210.273C572.662 211.595 571.868 212.749 570.788 213.559C570.319 213.907 569.804 214.184 569.26 214.38L585.428 272.364L663.514 235.043C663.125 233.997 663.01 232.864 663.181 231.757V231.749ZM781.842 406.443L691.048 411.211C691.031 412.465 690.653 413.686 689.964 414.717C689.274 415.749 688.304 416.545 687.177 417.005C686.049 417.464 684.815 417.567 683.631 417.298C682.447 417.03 681.367 416.404 680.527 415.499L686.877 445.891L782.092 407.539C781.982 407.179 781.902 406.809 781.854 406.435L781.842 406.443ZM781.933 404.324L682.004 373.328L684.782 404.788C686.311 404.744 687.8 405.295 688.955 406.332C690.11 407.369 690.847 408.817 691.02 410.39L781.449 405.642H781.806C781.809 405.196 781.856 404.752 781.945 404.315L781.933 404.324ZM681.333 405.995C682.118 405.406 683.026 405.019 683.984 404.866L681.182 373.073L612.24 351.683C612.079 352.116 611.873 352.529 611.624 352.915L680.329 406.96C680.633 406.599 680.973 406.272 681.345 405.987L681.333 405.995ZM611.113 353.626C610.809 353.989 610.466 354.315 610.093 354.599C609.431 355.098 608.679 355.453 607.883 355.645C607.086 355.837 606.259 355.861 605.453 355.716L599.282 391.485L679.051 409.379C679.229 408.757 679.497 408.166 679.845 407.626L611.113 353.626ZM604.683 355.523C603.672 355.202 602.76 354.614 602.034 353.818C601.308 353.022 600.795 352.044 600.544 350.981L504.401 368.555C504.458 369.102 504.448 369.654 504.369 370.198L598.508 391.317L604.683 355.523ZM543.333 299.092L602.397 344.771C602.559 344.626 602.727 344.489 602.901 344.36C603.371 344.015 603.886 343.738 604.429 343.539L584.92 273.567L544.111 293.088C544.474 294.077 544.593 295.144 544.457 296.192C544.321 297.241 543.935 298.237 543.333 299.092ZM600.393 349.831C600.359 349.2 600.415 348.568 600.56 347.954L523.525 322.72L501.623 363.906C502.949 364.776 503.897 366.143 504.27 367.721L600.393 349.831ZM600.79 347.17C601.036 346.512 601.388 345.903 601.83 345.367L542.817 299.717C541.857 300.766 540.577 301.441 539.193 301.628C537.809 301.815 536.405 301.502 535.217 300.743L523.918 321.989L600.79 347.17ZM543.341 291.609C543.496 291.834 543.638 292.069 543.765 292.312L584.686 272.737L568.486 214.635C567.523 214.852 566.524 214.825 565.573 214.557L540.745 289.494C541.787 289.935 542.69 290.667 543.353 291.609H543.341ZM585.638 273.189L605.179 343.28C606.504 342.98 607.887 343.144 609.112 343.744L665.895 238.082C665.262 237.657 664.708 237.117 664.26 236.488C664.105 236.262 663.963 236.026 663.835 235.782L585.638 273.189ZM609.803 344.147C610.864 344.848 611.689 345.873 612.163 347.081C612.637 348.288 612.737 349.618 612.45 350.887L681.107 372.182L669.376 239.092C668.416 239.118 667.465 238.909 666.598 238.484L609.803 344.147ZM588.202 489.475L700.585 515.494L686.298 447L587.987 486.588C588.274 487.52 588.347 488.509 588.202 489.475ZM587.702 485.82L686.123 446.187L679.734 415.54L587.317 485.114C587.46 485.34 587.588 485.576 587.702 485.82ZM586.856 484.448L679.781 414.493C678.991 413.211 678.676 411.676 678.896 410.172L599.171 392.286L583.634 482.346C584.902 482.671 586.035 483.408 586.868 484.448H586.856ZM578.887 483.146C580.061 482.375 581.455 482.043 582.836 482.206L598.377 392.109L504.21 370.987C503.871 372.213 503.179 373.303 502.226 374.112L578.887 483.146ZM501.599 374.593C500.892 375.057 500.1 375.365 499.273 375.5L509.044 488.157L576.046 488.091C576.099 487.232 576.322 486.393 576.7 485.626C577.078 484.859 577.603 484.18 578.245 483.631L501.599 374.593ZM498.48 375.574C497.077 375.608 495.706 375.144 494.594 374.26L401.11 484.161C401.201 484.276 401.3 484.391 401.388 484.514C402.151 485.603 402.558 486.915 402.55 488.26L508.246 488.157L498.48 375.574ZM519.378 564.91L577.915 493.077C576.81 491.987 576.144 490.506 576.05 488.929L509.115 488.995L515.592 563.678C516.949 563.639 518.281 564.066 519.378 564.893V564.91ZM510.866 566.183C511.822 564.874 513.235 564.001 514.802 563.752L508.318 489.003L402.499 489.106C402.387 489.978 402.102 490.817 401.661 491.57L435.057 514.389L510.866 566.183ZM510.433 566.869L504.365 562.725L401.181 492.231C400.845 492.665 400.455 493.052 400.022 493.381C398.996 494.155 397.761 494.577 396.49 494.589L390.533 550.186L509.766 568.668C509.897 568.031 510.122 567.419 510.433 566.853V566.869ZM390.454 486.925L305.419 462.118L330.099 533.557C331.196 533.232 332.359 533.231 333.457 533.554C334.554 533.877 335.542 534.511 336.31 535.384L391.613 492.145C391.565 492.083 391.514 492.026 391.47 491.96C390.968 491.242 390.618 490.422 390.443 489.555C390.268 488.687 390.272 487.791 390.454 486.925ZM379.989 600.625L352.558 568.59L333.048 545.82C332.15 546.016 331.222 546.002 330.33 545.779L336.14 620.577L378.358 606.51C378.126 605.467 378.154 604.379 378.439 603.35C378.725 602.32 379.258 601.383 379.989 600.625ZM336.795 536.029C337.37 536.885 337.733 537.875 337.85 538.911C337.967 539.947 337.835 540.997 337.465 541.968L389.748 550.055L395.701 494.519C394.355 494.359 393.098 493.741 392.129 492.761L336.795 536.029ZM389.275 601.36C389.628 601.862 389.906 602.416 390.101 603.003L509.734 571.169C509.632 570.607 509.603 570.034 509.647 569.465L390.442 550.983L385.307 598.834C386.9 599.101 388.327 600.009 389.275 601.36ZM384.513 598.76L389.672 550.88L337.108 542.74C336.68 543.538 336.088 544.229 335.374 544.765C334.919 545.11 334.419 545.386 333.889 545.586L358.495 574.282L380.6 600.087C380.648 600.046 380.691 600.005 380.743 599.968C381.836 599.141 383.164 598.716 384.517 598.76H384.513ZM345.525 719.676L381.858 610.88C380.868 610.437 380.01 609.728 379.374 608.827C379.044 608.361 378.777 607.851 378.58 607.311L336.203 621.431L343.815 719.455C344.392 719.444 344.968 719.518 345.525 719.676ZM339.573 721.34C339.806 721.092 340.058 720.864 340.327 720.658C341.13 720.055 342.063 719.663 343.045 719.516L335.425 621.694L262.47 646.024C262.694 646.944 262.716 647.904 262.534 648.834C262.352 649.764 261.971 650.639 261.419 651.396L339.573 721.34ZM261.486 643.844C261.789 644.276 262.037 644.746 262.224 645.244L335.362 620.852L329.512 545.537C328.888 545.279 328.309 544.917 327.798 544.465L301.922 582.176L260.395 642.661C260.808 643.003 261.175 643.401 261.486 643.844ZM259.752 642.18L327.218 543.894C327.076 543.733 326.944 543.562 326.821 543.385C326.372 542.744 326.042 542.023 325.849 541.257L235.25 559.296L255.438 641.351C256.926 641.067 258.462 641.362 259.752 642.18ZM252.938 642.464C253.458 642.073 254.034 641.77 254.644 641.564L234.456 559.452L177.514 570.799C177.711 572.437 177.284 574.09 176.324 575.408L252.176 643.133C252.413 642.89 252.668 642.666 252.938 642.464ZM170.661 577.868L155.818 656.506C156.948 656.811 157.969 657.446 158.76 658.335C159.551 659.224 160.078 660.33 160.279 661.52L250.442 648.066C250.323 646.523 250.753 644.99 251.652 643.753L175.8 576.024C175.567 576.276 175.313 576.507 175.042 576.714C173.778 577.664 172.21 578.077 170.661 577.868ZM202.465 438.199L173.236 565.538C174.235 565.852 175.139 566.426 175.861 567.206C176.583 567.986 177.099 568.945 177.36 569.99L234.254 558.655L204.612 438.178C203.903 438.314 203.177 438.321 202.465 438.199ZM207.985 436.256C207.275 437.052 206.378 437.644 205.382 437.977L235.035 558.499L325.702 540.428C325.512 538.856 325.897 537.268 326.782 535.976L207.985 436.256ZM208.482 435.615L327.282 535.343C327.552 535.039 327.851 534.764 328.175 534.522C328.544 534.244 328.944 534.013 329.365 533.832L304.482 461.843L209.259 434.067C209.071 434.618 208.809 435.139 208.482 435.615ZM293.771 447.678C292.938 446.498 292.528 445.054 292.612 443.595L209.501 433.126C209.501 433.176 209.482 433.225 209.47 433.274L304.153 460.894L300.402 450.035C299.197 450.393 297.914 450.359 296.728 449.937C295.542 449.515 294.51 448.727 293.771 447.678ZM302.323 449.074C301.952 449.348 301.553 449.578 301.133 449.76L305.097 461.169L390.672 486.132C390.674 486.116 390.674 486.099 390.672 486.083L304.157 446.86C303.722 447.738 303.092 448.497 302.319 449.074H302.323ZM456.642 306.424L303.645 440.186L303.673 440.223C304.26 441.062 304.64 442.038 304.778 443.064C304.917 444.09 304.81 445.136 304.466 446.109L390.982 485.331C391.663 483.959 392.806 482.893 394.195 482.333C395.585 481.773 397.124 481.758 398.522 482.292L459.147 308.296C458.171 307.904 457.309 307.259 456.642 306.424ZM459.928 308.535L399.268 482.633C399.737 482.883 400.172 483.195 400.562 483.561L415.425 466.106L494.003 373.697C493.779 373.466 493.572 373.217 493.384 372.954C492.429 371.595 492.035 369.899 492.288 368.239C492.541 366.58 493.42 365.092 494.733 364.103C494.816 364.042 494.908 363.988 494.995 363.927L464.437 307.82C463.08 308.652 461.464 308.908 459.928 308.535ZM467.179 304.267C466.811 305.495 466.086 306.577 465.104 307.364L495.682 363.536C496.499 363.129 497.394 362.916 498.302 362.911C499.209 362.906 500.106 363.11 500.928 363.508L522.755 322.47L467.179 304.267ZM532.332 296.135L467.445 301.963C467.478 302.466 467.452 302.97 467.37 303.466L523.144 321.735L534.566 300.263C533.33 299.25 532.528 297.775 532.332 296.156V296.135ZM453.305 92.3921L383.596 253.167C384.72 253.785 385.63 254.749 386.199 255.927C386.769 257.105 386.968 258.437 386.771 259.738L532.522 293.544C532.899 292.202 533.696 291.027 534.788 290.205C535.078 289.989 535.384 289.799 535.705 289.638L457.575 92.5276C456.182 93.014 454.666 92.9659 453.305 92.3921ZM459.599 91.3365C459.476 91.4474 459.349 91.5542 459.202 91.6569C458.915 91.8707 458.611 92.0589 458.293 92.2195L536.467 289.33C537.621 288.927 538.865 288.889 540.039 289.223L564.866 214.29C563.828 213.848 562.929 213.115 562.271 212.175C561.436 210.987 561.025 209.536 561.11 208.07C561.195 206.603 561.769 205.213 562.735 204.137L459.599 91.3365ZM586.471 69.6512C585.79 68.6767 585.39 67.5214 585.32 66.3205C585.25 65.1197 585.512 63.923 586.075 62.8705L532.614 29.6484C532.093 30.4303 531.409 31.0807 530.612 31.5512C529.815 32.0217 528.926 32.3003 528.011 32.3662C527.096 32.4321 526.178 32.2837 525.326 31.9319C524.474 31.58 523.709 31.034 523.089 30.3343L460.46 82.6706C460.496 82.7158 460.532 82.7568 460.563 82.802C461.388 83.9754 461.798 85.4058 461.725 86.8544C461.653 88.3031 461.103 89.6822 460.167 90.7615L563.279 203.574C563.378 203.488 563.477 203.402 563.584 203.32C564.818 202.391 566.343 201.975 567.859 202.153L590.15 72.1114C588.672 71.7917 587.361 70.9149 586.471 69.6512ZM593.924 71.7047C592.995 72.1359 591.975 72.3181 590.96 72.2345L568.664 202.297C570.16 202.675 571.464 203.624 572.313 204.953C573.163 206.283 573.497 207.895 573.248 209.468L663.363 230.936C663.748 229.614 664.541 228.46 665.621 227.65C665.812 227.501 666.01 227.364 666.217 227.239L593.924 71.7047ZM597.464 77.4259L632.507 152.811C632.319 151.652 632.447 150.461 632.877 149.373C633.306 148.284 634.021 147.342 634.94 146.65L634.988 146.618L597.464 77.4259ZM634.011 156.035L664.78 222.212L640.175 157.887C639.079 158.203 637.921 158.197 636.829 157.87C635.737 157.543 634.754 156.907 633.992 156.035H634.011ZM643.207 155.883C642.591 156.647 641.803 157.244 640.913 157.62L667.364 226.734C668.207 226.453 669.099 226.364 669.979 226.474C670.859 226.584 671.705 226.89 672.459 227.371L695.592 193.726L643.207 155.883ZM726.635 145.813C726.075 145.018 725.704 144.098 725.551 143.127L644.667 151.554C644.71 152.852 644.366 154.133 643.683 155.222L696.068 193.056L727.738 146.995C727.314 146.655 726.936 146.257 726.615 145.813H726.635ZM733.6 157.099L732.195 148.384C730.856 148.525 729.51 148.206 728.365 147.476L696.703 193.529L740.85 225.449C741.704 224.337 742.896 223.556 744.232 223.231L733.6 157.099ZM740.711 233.125C740.08 232.231 739.689 231.179 739.58 230.077L675.356 232.903C675.356 232.969 675.356 233.03 675.356 233.096L748.268 242.025L746.728 235.614C745.597 235.827 744.432 235.707 743.364 235.267C742.297 234.827 741.37 234.084 740.691 233.125H740.711ZM751.522 231.203C751.241 232.194 750.729 233.098 750.031 233.836C749.332 234.574 748.469 235.122 747.518 235.433L749.129 242.144L850.594 254.592L751.522 231.203ZM854.94 261.414C853.949 260.837 853.133 259.983 852.586 258.951C852.039 257.919 851.782 256.749 851.844 255.574L749.331 242.998L786.862 399.403C788.001 399.194 789.175 399.32 790.247 399.769L854.94 261.414ZM877.493 426.629L793.716 403.519C794.152 404.788 794.186 406.168 793.813 407.458C793.439 408.748 792.677 409.881 791.638 410.693C790.599 411.504 789.337 411.951 788.036 411.969C786.734 411.987 785.461 411.575 784.402 410.792L702.525 514.906L877.767 430.161C877.345 429.037 877.244 427.811 877.474 426.629H877.493Z" fill="#353535"/>
</g>
<path d="M778.631 57.8392C778.306 58.6898 777.736 59.4162 776.999 59.9202C776.261 60.4241 775.392 60.6813 774.508 60.6567L762.563 162.923C762.789 162.97 763.01 163.037 763.225 163.124C763.794 163.356 764.308 163.71 764.733 164.163C765.159 164.617 765.486 165.159 765.693 165.753C765.9 166.348 765.983 166.981 765.935 167.611C765.887 168.241 765.71 168.854 765.415 169.407C765.121 169.961 764.715 170.443 764.227 170.822C763.738 171.201 763.177 171.468 762.58 171.605C761.984 171.741 761.367 171.745 760.769 171.616C760.171 171.486 759.607 171.226 759.114 170.853L722.464 213.686C722.882 214.146 723.201 214.694 723.399 215.292C723.597 215.89 723.669 216.524 723.611 217.154C723.554 217.783 723.367 218.392 723.064 218.941C722.761 219.489 722.348 219.965 721.854 220.336C721.359 220.706 720.794 220.964 720.195 221.09C719.597 221.217 718.979 221.211 718.384 221.071C717.788 220.932 717.228 220.662 716.741 220.281C716.254 219.9 715.851 219.416 715.558 218.861L659.811 243.782C660.133 244.805 660.086 245.913 659.679 246.902C659.272 247.891 658.532 248.694 657.597 249.163L708.042 388.212C708.781 388.001 709.56 387.998 710.3 388.204C711.041 388.41 711.714 388.817 712.251 389.382C712.789 389.947 713.17 390.651 713.357 391.42C713.543 392.189 713.528 392.996 713.312 393.757C713.096 394.518 712.688 395.206 712.13 395.749C711.571 396.292 710.883 396.67 710.135 396.846C709.388 397.021 708.609 396.987 707.879 396.746C707.149 396.505 706.494 396.067 705.982 395.477L566.918 502.823C567.919 503.336 568.687 504.232 569.061 505.321C569.434 506.41 569.383 507.607 568.919 508.658C568.455 509.709 567.614 510.532 566.574 510.952C565.533 511.372 564.376 511.357 563.346 510.91C563.149 510.83 562.958 510.734 562.775 510.623L525.962 564.54C526.472 564.992 526.873 565.56 527.132 566.201C527.392 566.842 527.502 567.536 527.455 568.229C527.408 568.922 527.205 569.594 526.861 570.191C526.518 570.788 526.044 571.293 525.478 571.666L562.386 645.918L563.029 645.01L562.739 646.653L562.962 647.096H562.66L537.932 786.322C538.066 786.363 538.201 786.408 538.328 786.461C539.221 786.823 539.972 787.484 540.461 788.337C540.95 789.191 541.149 790.19 541.027 791.174C540.904 792.159 540.468 793.073 539.786 793.771C539.105 794.469 538.217 794.912 537.265 795.028C536.312 795.145 535.35 794.928 534.53 794.414C533.709 793.899 533.079 793.116 532.738 792.188C532.398 791.26 532.366 790.241 532.649 789.293C532.932 788.345 533.513 787.522 534.3 786.954L504 731.587C503.889 731.55 503.778 731.517 503.667 731.472C503.133 731.255 502.648 730.929 502.238 730.515L422.838 800.557C423.266 801.186 423.529 801.919 423.601 802.685C423.673 803.451 423.552 804.223 423.249 804.926C422.947 805.629 422.474 806.238 421.875 806.695C421.277 807.152 420.575 807.441 419.837 807.533C419.099 807.624 418.35 807.517 417.664 807.22C416.978 806.923 416.379 806.447 415.924 805.838C415.469 805.23 415.174 804.51 415.069 803.748C414.963 802.986 415.05 802.209 415.321 801.493C415.653 800.62 416.245 799.879 417.012 799.378L383.636 732.954C383.045 733.205 382.407 733.315 381.769 733.278C381.132 733.241 380.51 733.057 379.95 732.739C379.39 732.422 378.905 731.979 378.531 731.442C378.158 730.906 377.905 730.29 377.79 729.64L326.48 734.421C326.477 734.971 326.378 735.517 326.187 736.031C325.919 736.742 325.478 737.371 324.908 737.855C324.337 738.34 323.656 738.664 322.929 738.798C322.203 738.931 321.455 738.869 320.758 738.617C320.062 738.364 319.439 737.931 318.951 737.358C318.463 736.785 318.126 736.092 317.971 735.345C317.817 734.598 317.851 733.823 318.07 733.094C318.289 732.364 318.685 731.705 319.221 731.18C319.757 730.655 320.415 730.282 321.131 730.096L312.328 671.693C311.702 671.736 311.075 671.635 310.491 671.398C309.546 671.013 308.764 670.294 308.283 669.37C307.801 668.445 307.651 667.374 307.86 666.346L251.311 651.002C250.869 652.067 250.043 652.912 249.009 653.356C247.975 653.8 246.814 653.809 245.773 653.381C244.733 652.953 243.895 652.121 243.438 651.063C242.981 650.005 242.94 648.804 243.326 647.716C243.474 647.328 243.674 646.962 243.921 646.632L212.629 614.885C212.035 615.407 211.315 615.753 210.546 615.884C209.777 616.016 208.988 615.929 208.263 615.632C207.879 615.475 207.518 615.262 207.192 615L161.553 665.225C162.058 665.817 162.402 666.538 162.549 667.314C162.695 668.089 162.64 668.891 162.388 669.637C162.136 670.383 161.696 671.046 161.114 671.558C160.532 672.07 159.829 672.412 159.077 672.549C158.325 672.686 157.552 672.614 156.836 672.339C156.12 672.064 155.488 671.597 155.004 670.985C154.521 670.373 154.203 669.639 154.085 668.859C153.966 668.078 154.051 667.279 154.33 666.543C154.393 666.379 154.466 666.218 154.548 666.063L72.6442 609.833C72.1457 610.473 71.4856 610.957 70.7371 611.233C69.9886 611.508 69.1811 611.563 68.4041 611.392C67.6271 611.221 66.9112 610.831 66.3356 610.264C65.7601 609.698 65.3476 608.977 65.1438 608.182C64.9401 607.388 64.953 606.55 65.1813 605.763C65.4096 604.976 65.8443 604.269 66.4371 603.722C67.0299 603.175 67.7576 602.808 68.5394 602.663C69.3213 602.518 70.1267 602.6 70.8663 602.9C71.4724 603.147 72.0156 603.535 72.4537 604.034L186.968 513.953C186.62 513.297 186.439 512.561 186.439 511.812C186.44 511.064 186.623 510.328 186.971 509.672C187.32 509.017 187.822 508.463 188.433 508.061C189.043 507.66 189.742 507.425 190.463 507.377C191.185 507.329 191.907 507.471 192.561 507.789C193.216 508.106 193.783 508.59 194.209 509.194C194.635 509.799 194.907 510.505 195 511.247C195.092 511.989 195.002 512.743 194.738 513.44C194.653 513.664 194.549 513.879 194.429 514.085L233.662 547.139C234.052 546.707 234.522 546.36 235.042 546.118C235.563 545.876 236.126 545.744 236.697 545.729C237.267 545.715 237.835 545.818 238.367 546.033C238.899 546.248 239.384 546.571 239.794 546.982L333.056 469.441C332.649 468.803 332.407 468.068 332.355 467.306C332.302 466.543 332.44 465.78 332.755 465.089C333.071 464.398 333.553 463.802 334.155 463.36C334.758 462.918 335.46 462.644 336.194 462.565C336.929 462.485 337.671 462.603 338.349 462.906C339.026 463.21 339.617 463.689 340.064 464.297C340.511 464.906 340.798 465.623 340.899 466.38C341 467.137 340.911 467.909 340.64 468.62C340.449 469.128 340.166 469.595 339.807 469.996L376.985 512.405C377.57 511.948 378.259 511.653 378.986 511.55C379.713 511.446 380.453 511.537 381.136 511.814L380.779 511.637L441.498 380.314C440.832 379.908 440.284 379.324 439.912 378.623C439.54 377.922 439.358 377.129 439.385 376.33C439.413 375.531 439.648 374.754 440.067 374.081C440.486 373.409 441.072 372.866 441.764 372.51L420.155 315.89C419.392 316.121 418.582 316.129 417.815 315.912C417.048 315.694 416.355 315.261 415.812 314.66C415.269 314.059 414.898 313.314 414.74 312.507C414.582 311.701 414.644 310.865 414.918 310.093C415.192 309.32 415.668 308.642 416.293 308.133C416.918 307.624 417.667 307.305 418.457 307.211C419.247 307.117 420.046 307.251 420.766 307.599C421.487 307.948 422.099 308.496 422.536 309.183L500.996 266.059C500.582 265.023 500.562 263.864 500.939 262.814C501.316 261.763 502.062 260.898 503.028 260.393C503.994 259.887 505.109 259.777 506.15 260.085C507.191 260.393 508.082 261.097 508.643 262.055L557.671 237.671C557.381 236.866 557.322 235.991 557.502 235.152C557.682 234.314 558.093 233.547 558.686 232.945C559.279 232.343 560.027 231.932 560.841 231.761C561.655 231.59 562.499 231.667 563.271 231.983C563.499 232.079 563.719 232.193 563.93 232.324L624.856 150.593C624.323 150.058 623.933 149.389 623.724 148.652C623.515 147.914 623.494 147.133 623.663 146.385C623.833 145.637 624.187 144.947 624.691 144.382C625.195 143.817 625.831 143.398 626.539 143.164L613.006 73.7253C612.355 73.8111 611.694 73.7418 611.073 73.5227C610.453 73.3036 609.888 72.9405 609.424 72.4611C608.96 71.9818 608.607 71.3989 608.394 70.757C608.181 70.1152 608.112 69.4313 608.193 68.7578C608.274 68.0843 608.503 67.4388 608.862 66.8709C609.222 66.303 609.702 65.8276 610.266 65.481C610.829 65.1344 611.463 64.9259 612.116 64.8713C612.77 64.8168 613.427 64.9177 614.037 65.1663L614.085 65.1909L642.659 19.4423L657.772 -4.74011C657.251 -5.24792 656.862 -5.88202 656.638 -6.58496C656.415 -7.2879 656.364 -8.03754 656.491 -8.76581C656.618 -9.49408 656.919 -10.178 657.366 -10.7557C657.813 -11.3334 658.392 -11.7866 659.051 -12.0741C659.71 -12.3616 660.428 -12.4745 661.139 -12.4025C661.851 -12.3304 662.534 -12.0757 663.127 -11.6615C663.719 -11.2473 664.203 -10.6865 664.533 -10.0302C664.863 -9.37378 665.03 -8.64252 665.018 -7.90259L724.829 5.99579C724.829 5.93414 724.865 5.87256 724.889 5.81506C725.305 4.71649 726.126 3.83411 727.171 3.362C728.216 2.88983 729.399 2.86658 730.461 3.29742C731.522 3.72821 732.375 4.57776 732.831 5.65918C733.287 6.74054 733.31 7.96521 732.893 9.06372C732.694 9.58948 732.399 10.0706 732.024 10.4807L771.893 52.73C772.63 52.1097 773.545 51.7596 774.495 51.7344C775.444 51.7093 776.375 52.0105 777.142 52.591C777.909 53.1715 778.468 53.9985 778.733 54.9429C778.997 55.8873 778.952 56.8956 778.604 57.8105L778.631 57.8392ZM663.224 -4.3089C662.644 -3.88446 661.97 -3.61609 661.264 -3.52789C660.558 -3.4397 659.842 -3.53455 659.18 -3.80371C658.916 -3.91394 658.664 -4.05151 658.426 -4.21442L641.29 23.2043L614.807 65.5851C615.154 65.811 615.467 66.0877 615.736 66.4066L687.568 28.4121L663.224 -4.3089ZM505.647 268.745L508.278 310.699L565.668 310.354C565.702 309.931 565.796 309.516 565.946 309.122C566.018 308.933 566.105 308.751 566.204 308.576L508.262 267.217C507.595 268.034 506.667 268.576 505.647 268.745ZM423.239 312.025C423.202 312.448 423.107 312.863 422.957 313.258C422.87 313.489 422.762 313.712 422.636 313.923L509.195 379.817C509.855 379.05 510.751 378.544 511.731 378.383L507.536 311.516L423.239 312.025ZM390.609 728.301L372.107 679.398L381.497 724.42C382.063 724.349 382.638 724.395 383.187 724.556C383.736 724.717 384.248 724.989 384.694 725.358C385.14 725.726 385.51 726.182 385.784 726.7C386.057 727.218 386.229 727.788 386.287 728.375L390.609 728.301ZM420.893 798.943C421.427 799.157 421.913 799.481 422.322 799.896L501.722 729.874C501.304 729.251 501.043 728.53 500.964 727.775L391.768 729.123L418.131 798.844C419.041 798.57 420.012 798.616 420.893 798.976V798.943ZM704.875 392.512C704.87 391.996 704.952 391.483 705.117 390.996L640.52 360.505C640.007 361.431 639.19 362.135 638.218 362.49C637.246 362.845 636.183 362.827 635.222 362.44L615.879 402.2L704.875 392.512ZM729.004 11.8853H728.726L727.111 75.8487C727.762 75.9243 728.387 76.1545 728.938 76.5214C729.489 76.8883 729.95 77.382 730.286 77.9639L741.553 72.3126L729.004 11.8853ZM709.367 177.712L705.927 196.683C706.058 196.724 706.189 196.765 706.323 196.818C707.109 197.137 707.787 197.688 708.272 198.404L720.281 191.29L725.861 86.5599L709.367 177.712ZM705.161 196.502L717.146 130.276L725.424 84.5311C725.29 84.4935 725.157 84.4482 725.028 84.3955C724.324 84.111 723.706 83.6375 723.238 83.0237L655.208 129.224L702.573 197.102C703.357 196.636 704.262 196.437 705.161 196.535V196.502ZM730.623 78.6949C730.992 79.7057 730.991 80.8209 730.621 81.8311C730.251 82.8414 729.538 83.6773 728.615 84.1819L760.364 162.943L741.712 73.134L730.623 78.6949ZM757.649 165.596C758.023 164.607 758.727 163.79 759.634 163.292L727.885 84.4982C727.522 84.6146 727.146 84.6822 726.766 84.6994L721.115 190.768L757.749 169.063C757.512 168.527 757.382 167.947 757.365 167.358C757.348 166.769 757.444 166.183 757.649 165.633V165.596ZM758.138 169.777L721.059 191.746L719.964 212.281C720.284 212.33 720.599 212.417 720.9 212.54C721.245 212.681 721.57 212.867 721.869 213.095L758.523 170.254C758.384 170.116 758.255 169.967 758.138 169.81V169.777ZM716.662 213.205C717.378 212.617 718.256 212.28 719.17 212.244L720.237 192.235L708.673 199.085C708.912 199.627 709.043 200.213 709.059 200.809C709.074 201.404 708.974 201.997 708.764 202.552C708.585 203.024 708.329 203.46 708.006 203.841L716.662 213.205ZM700.688 202.346L647.612 215.329L654.89 240.793C655.688 240.629 656.515 240.706 657.272 241.014C657.792 241.223 658.267 241.537 658.668 241.938L701.256 203.558C701.01 203.197 700.818 202.8 700.688 202.379V202.346ZM565.974 236.685C565.853 237.784 565.334 238.794 564.521 239.511L595.742 290.488L652.049 247.442C651.641 246.743 651.426 245.942 651.426 245.125L565.974 236.685ZM380.501 520.299L388.156 566.976C388.83 566.905 389.51 567 390.141 567.255C390.455 567.382 390.754 567.549 391.03 567.752L403.055 555.969L381.227 520.048C380.993 520.155 380.75 520.238 380.501 520.299ZM211.95 607.627C212.528 607.967 213.022 608.44 213.394 609.01C213.766 609.58 214.005 610.231 214.093 610.913L242.667 609.911L236.714 554.601C236.213 554.589 235.718 554.487 235.25 554.301L211.95 607.627ZM237.488 554.572L243.441 609.907L332.338 606.79C332.364 606.321 332.46 605.86 332.624 605.422C332.624 605.373 332.667 605.327 332.691 605.278L240.318 552.728C239.988 553.215 239.568 553.629 239.083 553.945C238.597 554.262 238.055 554.475 237.488 554.572ZM632.789 356.71C632.861 356.523 632.946 356.342 633.043 356.168L573.248 313.598C572.861 314.077 572.38 314.467 571.838 314.741C571.296 315.016 570.704 315.169 570.101 315.192L567.061 370.67L632.507 358.694C632.454 358.017 632.551 357.335 632.789 356.702V356.71ZM569.291 315.147C568.972 315.098 568.66 315.012 568.359 314.892C568.05 314.764 567.755 314.6 567.482 314.403L514.957 379.201C515.268 379.435 515.547 379.711 515.787 380.022L566.256 370.793L569.291 315.147ZM516.227 380.786C516.477 381.299 516.628 381.857 516.672 382.429L557.124 403.707L561.041 405.761C561.405 405.159 561.904 404.657 562.495 404.296C563.086 403.935 563.753 403.726 564.438 403.687L566.196 371.652L516.227 380.786ZM560.676 406.517L556.775 404.463L516.648 383.353C516.602 383.715 516.516 384.071 516.39 384.412C516.179 384.969 515.862 385.476 515.457 385.903L530.117 421.343L560.557 409.281C560.309 408.37 560.351 407.401 560.676 406.517ZM632.65 359.487L567.025 371.504L565.259 403.732C565.607 403.779 565.948 403.869 566.275 403.999C566.946 404.271 567.539 404.713 568.002 405.285L633.023 360.444C632.865 360.14 632.74 359.819 632.65 359.487ZM564.525 502.363L564.247 412.562C563.87 412.519 563.499 412.425 563.144 412.283C562.127 411.872 561.301 411.074 560.834 410.053L530.439 422.099L563.64 502.556C563.928 502.46 564.224 502.396 564.525 502.363ZM529.677 422.395L494.309 436.412C494.493 437.273 494.425 438.171 494.114 438.991C493.988 439.316 493.827 439.625 493.634 439.911L535.157 478.518L562.021 503.505C562.284 503.254 562.576 503.037 562.89 502.86L529.677 422.395ZM504.028 723.081L496.019 683.086L491.066 658.366C490.041 658.488 489.007 658.222 488.156 657.619C487.304 657.015 486.692 656.114 486.431 655.08L465.429 658.674L503.409 723.319C503.608 723.221 503.815 723.141 504.028 723.081ZM430.759 534.497L436.256 605.253C436.776 605.26 437.291 605.363 437.776 605.557C438.602 605.893 439.306 606.486 439.792 607.254L462.099 596.616L431.601 534.251C431.329 534.361 431.047 534.444 430.759 534.497ZM440.165 607.964C440.602 609.031 440.618 610.233 440.209 611.311C440.103 611.589 439.97 611.855 439.812 612.104L487.463 650.875C487.712 650.606 487.992 650.37 488.296 650.172L462.457 597.335L440.165 607.964ZM486.304 654.267C486.254 653.606 486.351 652.942 486.586 652.325C486.693 652.048 486.826 651.782 486.983 651.532L469.957 637.691L439.316 612.782C439.149 612.96 438.969 613.123 438.776 613.27L465.004 657.918L486.304 654.267ZM438.089 613.694C437.555 613.965 436.972 614.118 436.378 614.143C435.784 614.169 435.191 614.066 434.637 613.841C434.178 613.657 433.755 613.39 433.387 613.053L374.044 671.735C374.416 672.219 374.686 672.779 374.838 673.377L464.151 658.07L438.089 613.694ZM372.25 670.35C372.705 670.539 373.127 670.806 373.496 671.139L432.839 612.461C432.298 611.755 431.977 610.896 431.918 609.997L382.517 608.679L371.826 670.207C371.968 670.248 372.107 670.297 372.25 670.35ZM431.942 609.155C431.981 608.778 432.069 608.408 432.204 608.055C432.245 607.947 432.291 607.841 432.343 607.738L391.851 574.286C391.408 574.822 390.848 575.241 390.217 575.509C389.586 575.777 388.903 575.886 388.224 575.826L382.668 607.861L431.942 609.155ZM392.589 573.013C392.51 573.22 392.416 573.42 392.307 573.613L432.756 607.044C432.993 606.712 433.275 606.416 433.593 606.165L403.519 556.679L391.676 568.286C392.253 568.9 392.646 569.674 392.808 570.514C392.97 571.354 392.894 572.225 392.589 573.021V573.013ZM434.26 605.726C434.572 605.564 434.9 605.44 435.24 605.356L429.958 534.563C428.933 534.552 427.947 534.16 427.18 533.458L404.078 556.1L434.26 605.726ZM488.538 441.501L488.364 441.419L455.424 491.878L432.728 526.669C433.425 527.263 433.925 528.069 434.156 528.973L509.703 515.913L491.07 441.69C490.229 441.893 489.348 441.83 488.542 441.509L488.538 441.501ZM433.863 532.119C433.509 532.842 432.971 533.451 432.307 533.881L462.822 596.271L519.136 569.419C518.837 568.545 518.811 567.595 519.061 566.705L433.863 532.119ZM519.47 570.179L463.179 597.015L489.011 649.827C489.895 649.461 490.874 649.412 491.789 649.688L521.263 571.925C520.513 571.538 519.889 570.931 519.47 570.179ZM494.59 655.586C494.354 656.209 493.984 656.769 493.508 657.224C493.033 657.678 492.464 658.016 491.844 658.21L495.456 676.236L504.81 722.933C504.985 722.916 505.161 722.909 505.337 722.913L513.632 649.285L492.876 650.197C493.72 650.748 494.352 651.586 494.665 652.567C494.978 653.548 494.952 654.61 494.59 655.573V655.586ZM501.416 725.319C501.728 724.692 502.18 724.152 502.734 723.742L464.596 658.83L374.965 674.174C375 674.68 374.952 675.188 374.822 675.677L501.416 725.319ZM371.044 670.063L381.711 608.654L340.898 607.553C340.825 608.203 340.613 608.828 340.278 609.383C339.943 609.937 339.494 610.408 338.962 610.761L369.051 670.392C369.681 670.12 370.364 670.007 371.044 670.063ZM340.918 606.732L381.854 607.825L387.442 575.674C387.298 575.633 387.156 575.584 387.017 575.527C386.322 575.245 385.71 574.779 385.243 574.175L340.418 604.937C340.704 605.493 340.874 606.104 340.918 606.732ZM381.934 519.662L403.658 555.394L426.644 532.862C426.275 532.376 426.007 531.816 425.859 531.217C425.711 530.618 425.685 529.994 425.783 529.384L383.45 517.826C383.119 518.572 382.594 519.208 381.934 519.662ZM383.719 517.054L425.989 528.595C425.989 528.562 425.989 528.529 426.021 528.497C426.437 527.402 427.255 526.522 428.297 526.05C429.338 525.579 430.517 525.553 431.577 525.979C431.753 526.054 431.926 526.139 432.093 526.234L482.863 448.425L487.677 441.033C487.438 440.863 487.217 440.667 487.018 440.449L383.41 513.966C383.87 514.921 383.98 516.017 383.719 517.05V517.054ZM494.067 435.632L529.363 421.643L514.842 386.45C514.292 386.84 513.662 387.093 513.002 387.187C512.341 387.282 511.668 387.217 511.036 386.996L492.416 433.619C493.15 434.1 493.725 434.801 494.067 435.628V435.632ZM573.951 312.37C573.879 312.557 573.794 312.739 573.697 312.913L633.492 355.486C633.692 355.235 633.919 355.009 634.17 354.813L595.528 291.695L573.625 308.444C573.967 309.028 574.174 309.686 574.23 310.366C574.287 311.046 574.191 311.731 573.951 312.366V312.37ZM654.152 249.302C653.525 249.047 652.964 248.642 652.517 248.12L596.163 291.207L634.829 354.373C635.536 353.999 636.33 353.834 637.123 353.897L654.585 249.454C654.438 249.411 654.293 249.359 654.152 249.298V249.302ZM634.512 362.103C634.109 361.841 633.751 361.512 633.452 361.13L568.442 405.958C568.661 406.369 568.818 406.812 568.907 407.272L614.942 402.286L634.512 362.103ZM569.01 408.09C569.022 409.219 568.619 410.311 567.882 411.144C567.145 411.977 566.129 412.488 565.041 412.575L565.339 502.359C565.607 502.386 565.873 502.438 566.132 502.515L614.526 403.157L569.01 408.09ZM560.934 505.164C561.074 504.798 561.261 504.453 561.489 504.138L493.118 440.54C492.75 440.917 492.318 441.22 491.844 441.435L510.497 515.773L560.64 507.103C560.598 506.442 560.699 505.78 560.934 505.164ZM509.921 516.717L434.307 529.794C434.344 530.319 434.292 530.845 434.152 531.351L519.351 565.941C519.844 564.924 520.697 564.143 521.732 563.76L509.921 516.717ZM521.994 572.212L492.749 649.367L513.723 648.447L522.299 572.286C522.18 572.266 522.097 572.233 521.994 572.212ZM506.119 722.995C506.351 723.047 506.58 723.117 506.802 723.204C507.023 723.296 507.237 723.405 507.441 723.533L561.537 647.166L514.425 649.22L506.119 722.995ZM500.96 726.987C500.982 726.74 501.023 726.496 501.083 726.256L500.94 725.997L374.548 676.445C374.137 677.32 373.459 678.03 372.619 678.466L391.458 728.301L500.96 726.987ZM326.405 733.603L377.723 728.823C377.721 728.272 377.821 727.725 378.017 727.213C378.142 726.882 378.306 726.567 378.505 726.276L349.8 700.932L325.238 731.275C325.844 731.912 326.25 732.724 326.405 733.603ZM379.017 725.648C379.499 725.165 380.083 724.804 380.723 724.592L371.198 678.91C370.155 679.043 369.101 678.772 368.238 678.15L350.308 700.303L379.017 725.648ZM367.627 677.624C367.217 677.196 366.895 676.686 366.682 676.126C366.468 675.565 366.367 674.965 366.385 674.363L316.301 668.009C316.251 668.307 316.173 668.599 316.067 668.88C315.96 669.166 315.827 669.441 315.67 669.702L349.72 699.761L367.627 677.624ZM316.36 667.188L359.694 672.687L314.364 663.5C314.966 663.896 315.463 664.44 315.811 665.084C316.16 665.727 316.348 666.45 316.36 667.188ZM366.555 673.242C366.591 673.115 366.631 672.991 366.674 672.868C367.005 672.003 367.589 671.266 368.345 670.761L338.259 611.155C337.297 611.566 336.224 611.601 335.239 611.252C334.255 610.904 333.427 610.196 332.909 609.262L251.43 648C251.619 648.628 251.672 649.291 251.585 649.942L366.555 673.242ZM332.58 608.515C332.477 608.219 332.405 607.914 332.366 607.603L243.544 610.72L247.231 644.878C247.801 644.866 248.367 644.971 248.898 645.186C249.853 645.573 250.642 646.302 251.12 647.24L332.58 608.515ZM246.461 644.977L242.77 610.745L214.137 611.751C214.111 612.218 214.015 612.678 213.851 613.114C213.688 613.541 213.463 613.94 213.184 614.297L244.481 646.016C245.036 645.5 245.712 645.141 246.441 644.977H246.461ZM205.823 609.866C206.229 608.798 207.018 607.934 208.025 607.454C209.032 606.974 210.18 606.915 211.228 607.291L234.413 554.199L161.569 663.985L206.608 614.433C206.083 613.821 205.732 613.07 205.593 612.264C205.455 611.458 205.534 610.628 205.823 609.866ZM159.882 664.026C160.062 664.1 160.237 664.187 160.406 664.284L233.924 553.48C233.448 553.036 233.074 552.487 232.829 551.874L178.999 570.179L159.596 663.923C159.692 663.956 159.787 663.985 159.882 664.026ZM240.806 551.8C240.778 551.874 240.742 551.944 240.711 552.014L333.072 604.547C333.431 604.002 333.901 603.546 334.45 603.212C334.999 602.877 335.613 602.673 336.247 602.613V564.495L241 551.18C240.95 551.391 240.885 551.598 240.806 551.8ZM337.029 602.625C337.437 602.66 337.838 602.757 338.219 602.912C338.915 603.194 339.527 603.66 339.993 604.264L384.839 573.514C384.474 572.813 384.299 572.022 384.331 571.226L337.065 564.618L337.029 602.625ZM384.402 570.409C384.45 570.197 384.51 569.989 384.585 569.785C384.916 568.909 385.51 568.166 386.279 567.666L338.235 471.113C337.854 471.272 337.453 471.374 337.045 471.417V563.776L384.402 570.409ZM338.942 470.735L386.982 567.275C387.113 567.222 387.244 567.173 387.379 567.132L379.707 520.402C379.124 520.419 378.544 520.316 378.001 520.098C376.944 519.666 376.094 518.819 375.639 517.742C375.183 516.665 375.157 515.444 375.568 514.348C375.761 513.839 376.043 513.373 376.401 512.972L339.227 470.542C339.136 470.612 339.04 470.676 338.942 470.735ZM382.993 513.276L486.522 439.796C485.972 438.926 485.734 437.884 485.85 436.852C485.966 435.819 486.429 434.861 487.157 434.145L446.046 380.223C445.486 380.6 444.848 380.835 444.184 380.911C443.52 380.988 442.847 380.903 442.221 380.663L381.501 511.982C382.086 512.288 382.594 512.731 382.985 513.276H382.993ZM447.717 378.116C447.489 378.722 447.134 379.268 446.677 379.714L486.86 432.449L456.063 378.038L447.928 377.291C447.882 377.573 447.809 377.849 447.709 378.116H447.717ZM488.3 433.34C488.828 433.082 489.4 432.939 489.983 432.919C490.566 432.9 491.147 433.004 491.689 433.225H491.725L510.318 386.643C509.654 386.258 509.1 385.698 508.713 385.02C508.326 384.342 508.12 383.57 508.115 382.782L457.051 378.108L488.3 433.34ZM508.187 381.981C508.236 381.7 508.312 381.425 508.413 381.16C508.501 380.928 508.609 380.706 508.734 380.494L422.171 314.596C421.959 314.841 421.722 315.061 421.465 315.254L456.555 377.27L508.187 381.981ZM512.552 378.338C513.05 378.35 513.541 378.451 514.005 378.638C514.104 378.679 514.199 378.728 514.295 378.773L566.922 313.882C566.229 313.155 565.798 312.204 565.7 311.188L508.358 311.533L512.552 378.338ZM569.891 306.292C570.51 306.28 571.125 306.407 571.693 306.663C572.261 306.92 572.768 307.3 573.181 307.779L595.131 290.997L563.874 239.971C563.514 240.188 563.125 240.349 562.719 240.452L569.891 306.292ZM566.025 235.856L651.529 244.325C651.579 244.054 651.652 243.789 651.747 243.532C651.962 242.966 652.287 242.452 652.701 242.021C653.115 241.59 653.611 241.252 654.156 241.027L646.866 215.522L565.954 235.273C565.981 235.469 565.995 235.666 565.998 235.864L566.025 235.856ZM647.414 214.544L700.533 201.578C700.429 200.821 700.516 200.048 700.787 199.336C700.854 199.164 700.931 198.997 701.017 198.835L645.207 160.031L631.162 150.256C630.687 150.852 630.07 151.31 629.372 151.583L647.414 214.544ZM631.892 149.053C631.821 149.233 631.74 149.408 631.65 149.579L701.458 198.149C701.613 197.957 701.781 197.777 701.962 197.611L654.577 129.705L631.65 145.275C631.952 145.849 632.128 146.486 632.165 147.139C632.203 147.792 632.1 148.446 631.865 149.053H631.892ZM654.732 128.588L722.789 82.3707C722.457 81.7205 722.285 80.9953 722.289 80.2597L616.756 69.5033C616.741 70.0042 616.643 70.4988 616.466 70.9654C616.258 71.5151 615.947 72.0163 615.55 72.4398L654.732 128.588ZM616.185 67.113C616.451 67.5956 616.63 68.1245 616.712 68.6737L722.365 79.4424C722.415 79.1761 722.488 78.9149 722.583 78.662C722.817 78.0366 723.186 77.4747 723.662 77.0192L688.068 29.1021L616.185 67.113ZM724.309 76.5099C724.915 76.1174 725.604 75.8846 726.317 75.8323L727.937 11.7621C727.737 11.7148 727.541 11.6531 727.349 11.5773C726.377 11.1843 725.578 10.4361 725.103 9.47443L688.778 28.6873L724.309 76.5099ZM729.794 11.8073L742.279 71.9552L770.607 57.7571C770.224 56.7316 770.224 55.5955 770.607 54.57C770.784 54.1216 771.029 53.7056 771.333 53.3379L731.437 11.0598C730.947 11.4305 730.387 11.6907 729.794 11.8237V11.8073ZM773.718 60.5417C773.493 60.4917 773.271 60.4244 773.056 60.3405C772.178 59.9817 771.438 59.3336 770.952 58.4963L742.438 72.8136L761.126 162.853C761.335 162.828 761.546 162.82 761.757 162.828L773.718 60.5417ZM715.245 218.085C714.934 217.103 714.963 216.04 715.328 215.078C715.51 214.608 715.767 214.172 716.086 213.789L707.431 204.429C706.619 205.097 705.601 205.438 704.565 205.388C703.529 205.339 702.545 204.904 701.795 204.162L659.208 242.542C659.313 242.69 659.409 242.845 659.494 243.006L715.245 218.085ZM656.855 249.426C656.376 249.564 655.878 249.614 655.382 249.573L637.921 354.016C638.073 354.06 638.222 354.112 638.369 354.172C639.403 354.591 640.24 355.41 640.704 356.454C641.167 357.499 641.221 358.689 640.853 359.774L705.446 390.29C705.875 389.514 706.519 388.89 707.296 388.499L656.855 249.426ZM705.506 394.807C705.243 394.363 705.057 393.873 704.958 393.362L615.442 403.054L567.621 501.279L705.506 394.807ZM562.144 510.167C561.48 509.58 561.005 508.798 560.783 507.924L510.707 516.582L522.498 563.55C523.474 563.375 524.479 563.566 525.331 564.088L562.144 510.167ZM524.791 572.064C524.25 572.288 523.671 572.396 523.089 572.385L514.525 648.411L561.715 646.336L524.791 572.064ZM535.003 786.548C535.676 786.234 536.415 786.105 537.15 786.174L561.648 648.406L508.072 724.017C508.741 724.628 509.21 725.44 509.413 726.339C509.617 727.238 509.544 728.181 509.206 729.035C508.867 729.89 508.28 730.614 507.526 731.108C506.771 731.601 505.887 731.839 504.996 731.788L535.003 786.548ZM416.218 796.068L390.918 729.123L386.299 729.18C386.266 729.614 386.171 730.04 386.017 730.445C385.686 731.314 385.099 732.052 384.339 732.556L416.218 796.068ZM321.9 729.944C322.862 729.876 323.818 730.151 324.607 730.724L349.177 700.373L315.154 670.35C314.599 670.95 313.892 671.377 313.114 671.583L321.9 729.944ZM308.094 665.558C308.369 664.868 308.808 664.26 309.369 663.792C309.931 663.324 310.598 663.01 311.308 662.88L259.605 652.403L308.094 665.558ZM154.965 665.373C155.423 664.787 156.017 664.331 156.692 664.047C157.366 663.763 158.099 663.661 158.823 663.75L178.126 570.471L73.4895 606.046C73.6832 606.919 73.6168 607.833 73.299 608.666C73.2344 608.83 73.1615 608.991 73.0808 609.147L154.965 665.373ZM72.9339 604.679C73.0463 604.863 73.1457 605.055 73.2316 605.253L178.312 569.522L189.385 516.015L189.159 515.937C188.474 515.66 187.869 515.204 187.404 514.615L72.9339 604.679ZM193.976 514.734C193.51 515.284 192.92 515.706 192.258 515.962C191.596 516.219 190.883 516.302 190.182 516.204L179.209 569.226L232.611 551.073C232.437 550.225 232.507 549.342 232.813 548.535C232.913 548.268 233.04 548.012 233.19 547.771L193.976 514.734ZM240.326 547.59C240.878 548.394 241.157 549.365 241.119 550.35L336.263 563.649V471.417C335.239 471.326 334.282 470.851 333.572 470.082L240.326 547.59ZM445.292 372.334C446.092 372.658 446.779 373.222 447.266 373.954C447.752 374.686 448.016 375.552 448.023 376.441L455.595 377.135L421.219 316.453L442.506 372.219C443.418 371.942 444.393 371.989 445.276 372.35L445.292 372.334ZM422.937 309.906C423.1 310.314 423.204 310.745 423.247 311.184L507.5 310.682L504.869 268.79C504.372 268.779 503.88 268.677 503.417 268.491C502.589 268.152 501.884 267.556 501.397 266.786L422.937 309.906ZM509.012 262.79C509.386 263.813 509.377 264.944 508.988 265.961C508.917 266.15 508.832 266.334 508.734 266.511L566.676 307.869C567.297 307.099 568.152 306.569 569.101 306.366L561.957 240.558C561.179 240.602 560.404 240.424 559.716 240.045C559.027 239.666 558.452 239.099 558.052 238.406L509.012 262.79ZM564.573 232.808C565.063 233.261 565.447 233.823 565.696 234.451L646.608 214.7L628.618 151.772C627.836 151.921 627.029 151.84 626.289 151.538C626.011 151.43 625.745 151.293 625.495 151.127L564.573 232.808ZM627.32 142.995C628.039 142.9 628.769 142.996 629.442 143.272C630.115 143.549 630.71 143.997 631.17 144.576L654.077 129.019L614.954 72.9532C614.597 73.2136 614.204 73.4159 613.787 73.5529L627.32 142.995ZM664.955 -7.07294C664.909 -6.82343 664.841 -6.57874 664.752 -6.34186C664.541 -5.78955 664.227 -5.28571 663.828 -4.85919L688.282 28.0383L724.793 8.73517C724.613 8.1123 724.567 7.4563 724.658 6.81305L664.955 -7.07294Z" fill="#353535"/>
</g>
</svg>
