<svg width="282" height="232" viewBox="0 0 282 232" fill="none" xmlns="http://www.w3.org/2000/svg">
<rect width="282" height="232" rx="4" fill="#59CBB6"/>
<mask id="mask0_50_5003" style="mask-type:alpha" maskUnits="userSpaceOnUse" x="0" y="86" width="282" height="146">
<rect y="86" width="282" height="146" rx="4" fill="#E7DB59"/>
</mask>
<g mask="url(#mask0_50_5003)">
<path d="M18 190.5C12 196.5 3.5 196.666 0 196V233H282V171.5C279.167 164.833 270.8 153.3 260 160.5C246.5 169.5 209 183.5 200 183.5C191 183.5 189 161 180.5 169.5C172 178 172.5 190.5 146 190.5C119.5 190.5 122.5 186.5 115.5 183.5C108.5 180.5 113 163.5 104 165C95 166.5 89.5 198.5 73 198C56.5 197.5 49.5 190.5 43 190.5C36.5 190.5 36.5 188 34 183.5C31.5 179 25.5 183 18 190.5Z" fill="url(#paint0_linear_50_5003)"/>
<path d="M0 196C3.5 196.666 12 196.5 18 190.5C25.5 183 31.5 179 34 183.5C36.5 188 36.5 190.5 43 190.5C49.5 190.5 56.5 197.5 73 198C89.5 198.5 95 166.5 104 165C113 163.5 108.5 180.5 115.5 183.5C122.5 186.5 119.5 190.5 146 190.5C172.5 190.5 172 178 180.5 169.5C189 161 191 183.5 200 183.5C209 183.5 246.5 169.5 260 160.5C270.8 153.3 279.167 164.833 282 171.5" stroke="white" stroke-width="2"/>
</g>
<line x1="-4.37114e-08" y1="127.5" x2="282" y2="127.5" stroke="white"/>
<defs>
<linearGradient id="paint0_linear_50_5003" x1="141" y1="158.216" x2="141" y2="233" gradientUnits="userSpaceOnUse">
<stop offset="0.182292" stop-color="white" stop-opacity="0.5"/>
<stop offset="1" stop-color="white" stop-opacity="0.1"/>
</linearGradient>
</defs>
</svg>
