<svg width="40" height="40" viewBox="0 0 40 40" fill="none" xmlns="http://www.w3.org/2000/svg">
<g clip-path="url(#clip0_66_4912)">
<circle cx="20" cy="20" r="20" fill="#E7DB59"/>
<mask id="mask0_66_4912" style="mask-type:alpha" maskUnits="userSpaceOnUse" x="8" y="8" width="24" height="24">
<rect x="8" y="8" width="24" height="24" fill="#D9D9D9"/>
</mask>
<g mask="url(#mask0_66_4912)">
<path d="M23.5 19C23.9167 19 24.2707 18.854 24.562 18.562C24.854 18.2707 25 17.9167 25 17.5C25 17.0833 24.854 16.7293 24.562 16.438C24.2707 16.146 23.9167 16 23.5 16C23.0833 16 22.7293 16.146 22.438 16.438C22.146 16.7293 22 17.0833 22 17.5C22 17.9167 22.146 18.2707 22.438 18.562C22.7293 18.854 23.0833 19 23.5 19ZM16.5 19C16.9167 19 17.2707 18.854 17.562 18.562C17.854 18.2707 18 17.9167 18 17.5C18 17.0833 17.854 16.7293 17.562 16.438C17.2707 16.146 16.9167 16 16.5 16C16.0833 16 15.7293 16.146 15.438 16.438C15.146 16.7293 15 17.0833 15 17.5C15 17.9167 15.146 18.2707 15.438 18.562C15.7293 18.854 16.0833 19 16.5 19ZM20 21.5C18.8667 21.5 17.8377 21.8207 16.913 22.462C15.9877 23.104 15.3167 23.95 14.9 25H16.55C16.9167 24.3833 17.404 23.8957 18.012 23.537C18.6207 23.179 19.2833 23 20 23C20.7167 23 21.3793 23.179 21.988 23.537C22.596 23.8957 23.0833 24.3833 23.45 25H25.1C24.6833 23.95 24.0127 23.104 23.088 22.462C22.1627 21.8207 21.1333 21.5 20 21.5ZM20 30C18.6167 30 17.3167 29.7373 16.1 29.212C14.8833 28.6873 13.825 27.975 12.925 27.075C12.025 26.175 11.3127 25.1167 10.788 23.9C10.2627 22.6833 10 21.3833 10 20C10 18.6167 10.2627 17.3167 10.788 16.1C11.3127 14.8833 12.025 13.825 12.925 12.925C13.825 12.025 14.8833 11.3123 16.1 10.787C17.3167 10.2623 18.6167 10 20 10C21.3833 10 22.6833 10.2623 23.9 10.787C25.1167 11.3123 26.175 12.025 27.075 12.925C27.975 13.825 28.6873 14.8833 29.212 16.1C29.7373 17.3167 30 18.6167 30 20C30 21.3833 29.7373 22.6833 29.212 23.9C28.6873 25.1167 27.975 26.175 27.075 27.075C26.175 27.975 25.1167 28.6873 23.9 29.212C22.6833 29.7373 21.3833 30 20 30Z" fill="#232323"/>
</g>
</g>
<defs>
<clipPath id="clip0_66_4912">
<rect width="40" height="40" fill="white"/>
</clipPath>
</defs>
</svg>
