<svg width="40" height="40" viewBox="0 0 40 40" fill="none" xmlns="http://www.w3.org/2000/svg">
<g clip-path="url(#clip0_66_4914)">
<circle cx="20" cy="20" r="20" fill="#E7DB59"/>
<mask id="mask0_66_4914" style="mask-type:alpha" maskUnits="userSpaceOnUse" x="8" y="8" width="24" height="24">
<rect x="8" y="8" width="24" height="24" fill="#D9D9D9"/>
</mask>
<g mask="url(#mask0_66_4914)">
<path d="M17.2 17.2L19.425 13.525L17.95 11.075C17.75 10.7417 17.4627 10.575 17.088 10.575C16.7127 10.575 16.425 10.7417 16.225 11.075L13.775 15.15L17.2 17.2ZM26.875 24L24.65 20.3L28.125 18.3L29.725 20.975C29.9083 21.2583 30.0083 21.575 30.025 21.925C30.0417 22.275 29.9667 22.6 29.8 22.9C29.6333 23.2333 29.3873 23.5 29.062 23.7C28.7373 23.9 28.3833 24 28 24H26.875ZM24 31L20 27L24 23V25H28.75L27.3 27.9C27.1167 28.2333 26.8667 28.5 26.55 28.7C26.2333 28.9 25.8833 29 25.5 29H24V31ZM14.325 29C13.9917 29 13.6873 28.9127 13.412 28.738C13.1373 28.5627 12.9333 28.3333 12.8 28.05C12.6667 27.7833 12.6043 27.504 12.613 27.212C12.621 26.9207 12.7 26.65 12.85 26.4L13.7 25H18V29H14.325ZM11.85 26.15L10.225 22.9C10.075 22.6 10.0043 22.2793 10.013 21.938C10.021 21.596 10.1167 21.275 10.3 20.975L10.7 20.3L9 19.275L14.475 17.9L15.85 23.4L14.125 22.35L11.85 26.15ZM25.35 17.6L19.875 16.225L21.6 15.2L18.475 10H22C22.35 10 22.6793 10.0873 22.988 10.262C23.296 10.4373 23.5417 10.675 23.725 10.975L25.025 13.15L26.725 12.1L25.35 17.6Z" fill="#232323"/>
</g>
</g>
<defs>
<clipPath id="clip0_66_4914">
<rect width="40" height="40" fill="white"/>
</clipPath>
</defs>
</svg>
