<svg width="40" height="40" viewBox="0 0 40 40" fill="none" xmlns="http://www.w3.org/2000/svg">
<g clip-path="url(#clip0_66_4909)">
<circle cx="20" cy="20" r="20" fill="#E7DB59"/>
<mask id="mask0_66_4909" style="mask-type:alpha" maskUnits="userSpaceOnUse" x="8" y="8" width="24" height="24">
<rect x="8" y="8" width="24" height="24" fill="#D9D9D9"/>
</mask>
<g mask="url(#mask0_66_4909)">
<path d="M17.25 30L16.85 26.8C16.6333 26.7167 16.4293 26.6167 16.238 26.5C16.046 26.3833 15.8583 26.2583 15.675 26.125L12.7 27.375L9.94995 22.625L12.525 20.675C12.5083 20.5583 12.5 20.4457 12.5 20.337V19.662C12.5 19.554 12.5083 19.4417 12.525 19.325L9.94995 17.375L12.7 12.625L15.675 13.875C15.8583 13.7417 16.05 13.6167 16.25 13.5C16.45 13.3833 16.65 13.2833 16.85 13.2L17.25 10H22.75L23.15 13.2C23.3666 13.2833 23.571 13.3833 23.763 13.5C23.9543 13.6167 24.1416 13.7417 24.325 13.875L27.2999 12.625L30.0499 17.375L27.475 19.325C27.4916 19.4417 27.5 19.554 27.5 19.662V20.337C27.5 20.4457 27.4833 20.5583 27.45 20.675L30.025 22.625L27.275 27.375L24.325 26.125C24.1416 26.2583 23.95 26.3833 23.75 26.5C23.55 26.6167 23.35 26.7167 23.15 26.8L22.75 30H17.25ZM20 24C20.2833 24 20.521 23.904 20.713 23.712C20.9043 23.5207 21 23.2833 21 23C21 22.7167 20.9043 22.479 20.713 22.287C20.521 22.0957 20.2833 22 20 22C19.7166 22 19.4793 22.0957 19.288 22.287C19.096 22.479 19 22.7167 19 23C19 23.2833 19.096 23.5207 19.288 23.712C19.4793 23.904 19.7166 24 20 24ZM19 21H21V16H19V21Z" fill="#232323"/>
</g>
</g>
<defs>
<clipPath id="clip0_66_4909">
<rect width="40" height="40" fill="white"/>
</clipPath>
</defs>
</svg>
