<svg width="40" height="40" viewBox="0 0 40 40" fill="none" xmlns="http://www.w3.org/2000/svg">
<g clip-path="url(#clip0_66_4911)">
<circle cx="20" cy="20" r="20" fill="#E7DB59"/>
<mask id="mask0_66_4911" style="mask-type:alpha" maskUnits="userSpaceOnUse" x="8" y="8" width="24" height="24">
<rect x="8" y="8" width="24" height="24" fill="#D9D9D9"/>
</mask>
<g mask="url(#mask0_66_4911)">
<path d="M19 23H21L21.15 21.75C21.2833 21.7 21.4043 21.6417 21.513 21.575C21.621 21.5083 21.7167 21.4333 21.8 21.35L22.95 21.85L23.95 20.15L22.95 19.4C22.9833 19.2667 23 19.1333 23 19C23 18.8667 22.9833 18.7333 22.95 18.6L23.95 17.85L22.95 16.15L21.8 16.65C21.7167 16.5667 21.621 16.4917 21.513 16.425C21.4043 16.3583 21.2833 16.3 21.15 16.25L21 15H19L18.85 16.25C18.7167 16.3 18.596 16.3583 18.488 16.425C18.3793 16.4917 18.2833 16.5667 18.2 16.65L17.05 16.15L16.05 17.85L17.05 18.6C17.0167 18.7333 17 18.8667 17 19C17 19.1333 17.0167 19.2667 17.05 19.4L16.05 20.15L17.05 21.85L18.2 21.35C18.2833 21.4333 18.3793 21.5083 18.488 21.575C18.596 21.6417 18.7167 21.7 18.85 21.75L19 23ZM20 20.5C19.5833 20.5 19.2293 20.354 18.938 20.062C18.646 19.7707 18.5 19.4167 18.5 19C18.5 18.5833 18.646 18.2293 18.938 17.938C19.2293 17.646 19.5833 17.5 20 17.5C20.4167 17.5 20.7707 17.646 21.062 17.938C21.354 18.2293 21.5 18.5833 21.5 19C21.5 19.4167 21.354 19.7707 21.062 20.062C20.7707 20.354 20.4167 20.5 20 20.5ZM14 30V25.7C13.05 24.8333 12.3127 23.8207 11.788 22.662C11.2627 21.504 11 20.2833 11 19C11 16.5 11.875 14.375 13.625 12.625C15.375 10.875 17.5 10 20 10C22.0833 10 23.9293 10.6127 25.538 11.838C27.146 13.0627 28.1917 14.6583 28.675 16.625L29.975 21.75C30.0583 22.0667 30 22.3543 29.8 22.613C29.6 22.871 29.3333 23 29 23H27V26C27 26.55 26.8043 27.021 26.413 27.413C26.021 27.8043 25.55 28 25 28H23V30H14Z" fill="#232323"/>
</g>
</g>
<defs>
<clipPath id="clip0_66_4911">
<rect width="40" height="40" fill="white"/>
</clipPath>
</defs>
</svg>
