<svg width="28" height="34" viewBox="0 0 28 34" fill="none" xmlns="http://www.w3.org/2000/svg">
<path d="M0.666626 28.6668V25.3335H3.99996V13.6668C3.99996 11.3613 4.6944 9.31238 6.08329 7.52016C7.47218 5.72905 9.27774 4.55572 11.5 4.00016V2.8335C11.5 2.13905 11.7433 1.54905 12.23 1.0635C12.7155 0.576829 13.3055 0.333496 14 0.333496C14.6944 0.333496 15.2844 0.576829 15.77 1.0635C16.2566 1.54905 16.5 2.13905 16.5 2.8335V4.00016C18.7222 4.55572 20.5277 5.72905 21.9166 7.52016C23.3055 9.31238 24 11.3613 24 13.6668V25.3335H27.3333V28.6668H0.666626ZM14 33.6668C13.0833 33.6668 12.2988 33.3407 11.6466 32.6885C10.9933 32.0352 10.6666 31.2502 10.6666 30.3335H17.3333C17.3333 31.2502 17.0072 32.0352 16.355 32.6885C15.7016 33.3407 14.9166 33.6668 14 33.6668Z" fill="#353535"/>
</svg>
