<svg width="40" height="40" viewBox="0 0 40 40" fill="none" xmlns="http://www.w3.org/2000/svg">
<g clip-path="url(#clip0_66_4910)">
<circle cx="20" cy="20" r="20" fill="#E7DB59"/>
<mask id="mask0_66_4910" style="mask-type:alpha" maskUnits="userSpaceOnUse" x="8" y="8" width="24" height="24">
<rect x="8" y="8" width="24" height="24" fill="#D9D9D9"/>
</mask>
<g mask="url(#mask0_66_4910)">
<path d="M14 29L10 25L14 21L15.4 22.4L13.8 24H26.2L24.6 22.4L26 21L30 25L26 29L24.6 27.6L26.2 26H13.8L15.4 27.6L14 29ZM10 19V18.425C10 18.025 10.1083 17.6583 10.325 17.325C10.5417 16.9917 10.8417 16.7417 11.225 16.575C11.6583 16.3917 12.104 16.25 12.562 16.15C13.0207 16.05 13.5 16 14 16C14.5 16 14.9793 16.05 15.438 16.15C15.896 16.25 16.3417 16.3917 16.775 16.575C17.1583 16.7417 17.4583 16.9917 17.675 17.325C17.8917 17.6583 18 18.025 18 18.425V19H10ZM22 19V18.425C22 18.025 22.1083 17.6583 22.325 17.325C22.5417 16.9917 22.8417 16.7417 23.225 16.575C23.6583 16.3917 24.104 16.25 24.562 16.15C25.0207 16.05 25.5 16 26 16C26.5 16 26.9793 16.05 27.438 16.15C27.896 16.25 28.3417 16.3917 28.775 16.575C29.1583 16.7417 29.4583 16.9917 29.675 17.325C29.8917 17.6583 30 18.025 30 18.425V19H22ZM14 15C13.45 15 12.9793 14.804 12.588 14.412C12.196 14.0207 12 13.55 12 13C12 12.45 12.196 11.979 12.588 11.587C12.9793 11.1957 13.45 11 14 11C14.55 11 15.0207 11.1957 15.412 11.587C15.804 11.979 16 12.45 16 13C16 13.55 15.804 14.0207 15.412 14.412C15.0207 14.804 14.55 15 14 15ZM26 15C25.45 15 24.979 14.804 24.587 14.412C24.1957 14.0207 24 13.55 24 13C24 12.45 24.1957 11.979 24.587 11.587C24.979 11.1957 25.45 11 26 11C26.55 11 27.021 11.1957 27.413 11.587C27.8043 11.979 28 12.45 28 13C28 13.55 27.8043 14.0207 27.413 14.412C27.021 14.804 26.55 15 26 15Z" fill="#232323"/>
</g>
</g>
<defs>
<clipPath id="clip0_66_4910">
<rect width="40" height="40" fill="white"/>
</clipPath>
</defs>
</svg>
