<svg width="40" height="40" viewBox="0 0 40 40" fill="none" xmlns="http://www.w3.org/2000/svg">
<g clip-path="url(#clip0_66_4913)">
<circle cx="20" cy="20" r="20" fill="#E7DB59"/>
<mask id="mask0_66_4913" style="mask-type:alpha" maskUnits="userSpaceOnUse" x="8" y="8" width="24" height="24">
<rect x="8" y="8" width="24" height="24" fill="#D9D9D9"/>
</mask>
<g mask="url(#mask0_66_4913)">
<path d="M17 30V16.775C15.4833 16.375 14.271 15.5373 13.363 14.262C12.4543 12.9873 12 11.5667 12 10H14C14 11.3833 14.446 12.5623 15.338 13.537C16.2293 14.5123 17.3667 15 18.75 15H21.25C21.75 15 22.2167 15.0917 22.65 15.275C23.0833 15.4583 23.475 15.725 23.825 16.075L28.35 20.6L26.95 22L23 18.05V30H21V24H19V30H17ZM20 14C19.45 14 18.9793 13.804 18.588 13.412C18.196 13.0207 18 12.55 18 12C18 11.45 18.196 10.979 18.588 10.587C18.9793 10.1957 19.45 10 20 10C20.55 10 21.021 10.1957 21.413 10.587C21.8043 10.979 22 11.45 22 12C22 12.55 21.8043 13.0207 21.413 13.412C21.021 13.804 20.55 14 20 14Z" fill="#232323"/>
</g>
</g>
<defs>
<clipPath id="clip0_66_4913">
<rect width="40" height="40" fill="white"/>
</clipPath>
</defs>
</svg>
