<svg width="40" height="40" viewBox="0 0 40 40" fill="none" xmlns="http://www.w3.org/2000/svg">
<g clip-path="url(#clip0_66_4922)">
<circle cx="20" cy="20" r="20" fill="#E7DB59"/>
<path d="M12 11C12 10.4477 12.4477 10 13 10H23L28 15V29C28 29.5523 27.5523 30 27 30H13C12.4477 30 12 29.5523 12 29V11Z" fill="#232323"/>
<path fill-rule="evenodd" clip-rule="evenodd" d="M13 10.75C12.8619 10.75 12.75 10.8619 12.75 11V29C12.75 29.1381 12.8619 29.25 13 29.25H27C27.1381 29.25 27.25 29.1381 27.25 29V15.3107L22.6893 10.75H13ZM11.25 11C11.25 10.0335 12.0335 9.25 13 9.25H23C23.1989 9.25 23.3897 9.32902 23.5303 9.46967L28.5303 14.4697C28.671 14.6103 28.75 14.8011 28.75 15V29C28.75 29.9665 27.9665 30.75 27 30.75H13C12.0335 30.75 11.25 29.9665 11.25 29V11Z" fill="#232323"/>
<path fill-rule="evenodd" clip-rule="evenodd" d="M15.25 18C15.25 17.5858 15.5858 17.25 16 17.25H24C24.4142 17.25 24.75 17.5858 24.75 18C24.75 18.4142 24.4142 18.75 24 18.75H16C15.5858 18.75 15.25 18.4142 15.25 18Z" fill="#E7DB59"/>
<path fill-rule="evenodd" clip-rule="evenodd" d="M15.25 22C15.25 21.5858 15.5858 21.25 16 21.25H24C24.4142 21.25 24.75 21.5858 24.75 22C24.75 22.4142 24.4142 22.75 24 22.75H16C15.5858 22.75 15.25 22.4142 15.25 22Z" fill="#E7DB59"/>
</g>
<defs>
<clipPath id="clip0_66_4922">
<rect width="40" height="40" fill="white"/>
</clipPath>
</defs>
</svg>
