<svg width="40" height="40" viewBox="0 0 40 40" fill="none" xmlns="http://www.w3.org/2000/svg">
<g clip-path="url(#clip0_66_4923)">
<circle cx="20" cy="20" r="20" fill="#E7DB59"/>
<mask id="mask0_66_4923" style="mask-type:alpha" maskUnits="userSpaceOnUse" x="8" y="8" width="24" height="24">
<rect x="8" y="8" width="24" height="24" fill="#D9D9D9"/>
</mask>
<g mask="url(#mask0_66_4923)">
<path d="M20 22C20.55 22 21.021 21.804 21.413 21.412C21.8043 21.0207 22 20.55 22 20C22 19.45 21.8043 18.979 21.413 18.587C21.021 18.1957 20.55 18 20 18C19.45 18 18.9793 18.1957 18.588 18.587C18.196 18.979 18 19.45 18 20C18 20.55 18.196 21.0207 18.588 21.412C18.9793 21.804 19.45 22 20 22ZM16 26H24V25.425C24 25.025 23.8917 24.6583 23.675 24.325C23.4583 23.9917 23.1583 23.7417 22.775 23.575C22.3417 23.3917 21.896 23.25 21.438 23.15C20.9793 23.05 20.5 23 20 23C19.5 23 19.0207 23.05 18.562 23.15C18.104 23.25 17.6583 23.3917 17.225 23.575C16.8417 23.7417 16.5417 23.9917 16.325 24.325C16.1083 24.6583 16 25.025 16 25.425V26ZM26 30H14C13.45 30 12.9793 29.8043 12.588 29.413C12.196 29.021 12 28.55 12 28V12C12 11.45 12.196 10.979 12.588 10.587C12.9793 10.1957 13.45 10 14 10H22L28 16V28C28 28.55 27.8043 29.021 27.413 29.413C27.021 29.8043 26.55 30 26 30Z" fill="#232323"/>
</g>
</g>
<defs>
<clipPath id="clip0_66_4923">
<rect width="40" height="40" fill="white"/>
</clipPath>
</defs>
</svg>
