<svg width="40" height="40" viewBox="0 0 40 40" fill="none" xmlns="http://www.w3.org/2000/svg">
<g clip-path="url(#clip0_66_4917)">
<circle cx="20" cy="20" r="20" fill="#E7DB59"/>
<mask id="mask0_66_4917" style="mask-type:alpha" maskUnits="userSpaceOnUse" x="8" y="8" width="24" height="24">
<rect x="8" y="8" width="24" height="24" fill="#D9D9D9"/>
</mask>
<g mask="url(#mask0_66_4917)">
<path d="M16.6 30.5L14.7 27.3L11.1 26.5L11.45 22.8L9 20L11.45 17.2L11.1 13.5L14.7 12.7L16.6 9.5L20 10.95L23.4 9.5L25.3 12.7L28.9 13.5L28.55 17.2L31 20L28.55 22.8L28.9 26.5L25.3 27.3L23.4 30.5L20 29.05L16.6 30.5ZM18.95 23.55L24.6 17.9L23.2 16.45L18.95 20.7L16.8 18.6L15.4 20L18.95 23.55Z" fill="#232323"/>
</g>
</g>
<defs>
<clipPath id="clip0_66_4917">
<rect width="40" height="40" fill="white"/>
</clipPath>
</defs>
</svg>
