<svg width="40" height="40" viewBox="0 0 40 40" fill="none" xmlns="http://www.w3.org/2000/svg">
<g clip-path="url(#clip0_66_4921)">
<circle cx="20" cy="20" r="20" fill="#E7DB59"/>
<path d="M12 30V10H23.5L28 15.25V30H12Z" fill="#232323"/>
<path fill-rule="evenodd" clip-rule="evenodd" d="M11.25 10C11.25 9.58579 11.5858 9.25 12 9.25H23.5C23.7189 9.25 23.927 9.34567 24.0694 9.51191L28.5694 14.7619C28.686 14.8978 28.75 15.071 28.75 15.25V30C28.75 30.4142 28.4142 30.75 28 30.75H12C11.5858 30.75 11.25 30.4142 11.25 30V10ZM12.75 10.75V29.25H27.25V15.5274L23.155 10.75H12.75Z" fill="#232323"/>
<path d="M20.0003 15.5L21.5424 18.8776L25.2311 19.3004L22.4954 21.8107L23.2331 25.4496L20.0003 23.6235L16.7675 25.4496L17.5052 21.8107L14.7695 19.3004L18.4583 18.8776L20.0003 15.5Z" fill="#E7DB59"/>
<path fill-rule="evenodd" clip-rule="evenodd" d="M20.0004 14.75C20.294 14.75 20.5607 14.9214 20.6826 15.1885L22.0487 18.1807L25.3166 18.5553C25.6083 18.5887 25.8537 18.7894 25.9445 19.0686C26.0352 19.3479 25.9546 19.6545 25.7382 19.853L23.3147 22.0769L23.9682 25.3006C24.0266 25.5884 23.9116 25.8838 23.674 26.0564C23.4364 26.229 23.12 26.247 22.8643 26.1026L20.0004 24.4849L17.1364 26.1026C16.8807 26.247 16.5643 26.229 16.3267 26.0564C16.0892 25.8838 15.9742 25.5884 16.0325 25.3006L16.686 22.0769L14.2625 19.853C14.0461 19.6545 13.9655 19.3479 14.0563 19.0686C14.147 18.7894 14.3924 18.5887 14.6841 18.5553L17.952 18.1807L19.3181 15.1885C19.4401 14.9214 19.7067 14.75 20.0004 14.75ZM20.0004 17.3058L19.1406 19.189C19.0314 19.4282 18.8049 19.5927 18.5437 19.6227L16.487 19.8584L18.0123 21.2581C18.206 21.4358 18.2925 21.702 18.2403 21.9597L17.829 23.9887L19.6315 22.9705C19.8604 22.8412 20.1403 22.8412 20.3692 22.9705L22.1717 23.9887L21.7604 21.9597C21.7082 21.702 21.7947 21.4358 21.9884 21.2581L23.5137 19.8584L21.457 19.6227C21.1958 19.5927 20.9693 19.4282 20.8602 19.189L20.0004 17.3058Z" fill="#E7DB59"/>
</g>
<defs>
<clipPath id="clip0_66_4921">
<rect width="40" height="40" fill="white"/>
</clipPath>
</defs>
</svg>
