<svg width="64" height="64" viewBox="0 0 64 64" fill="none" xmlns="http://www.w3.org/2000/svg">
<mask id="mask0_76_5730" style="mask-type:alpha" maskUnits="userSpaceOnUse" x="0" y="0" width="64" height="64">
<rect width="64" height="64" fill="#D9D9D9"/>
</mask>
<g mask="url(#mask0_76_5730)">
<path d="M31.9997 58.6666C28.3108 58.6666 24.8441 57.9661 21.5997 56.5653C18.3552 55.1661 15.533 53.2666 13.133 50.8666C10.733 48.4666 8.83345 45.6444 7.43434 42.3999C6.03345 39.1555 5.33301 35.6888 5.33301 31.9999C5.33301 28.311 6.03345 24.8444 7.43434 21.5999C8.83345 18.3555 10.733 15.5333 13.133 13.1333C15.533 10.7333 18.3552 8.83281 21.5997 7.43192C24.8441 6.03281 28.3108 5.33325 31.9997 5.33325C34.8886 5.33325 37.6219 5.75547 40.1997 6.59992C42.7775 7.44436 45.1552 8.62214 47.333 10.1333L43.4663 14.0666C41.7774 12.9999 39.9774 12.1661 38.0663 11.5653C36.1552 10.9661 34.133 10.6666 31.9997 10.6666C26.0886 10.6666 21.0557 12.7439 16.901 16.8986C12.7446 21.055 10.6663 26.0888 10.6663 31.9999C10.6663 37.911 12.7446 42.9448 16.901 47.1012C21.0557 51.2559 26.0886 53.3332 31.9997 53.3332C37.9108 53.3332 42.9446 51.2559 47.101 47.1012C51.2557 42.9448 53.333 37.911 53.333 31.9999C53.333 31.1999 53.2886 30.3999 53.1997 29.5999C53.1108 28.7999 52.9774 28.0221 52.7997 27.2666L57.133 22.9333C57.6219 24.3555 57.9997 25.8221 58.2663 27.3333C58.533 28.8444 58.6663 30.3999 58.6663 31.9999C58.6663 35.6888 57.9659 39.1555 56.565 42.3999C55.1659 45.6444 53.2663 48.4666 50.8663 50.8666C48.4663 53.2666 45.6441 55.1661 42.3997 56.5653C39.1552 57.9661 35.6886 58.6666 31.9997 58.6666ZM28.2663 44.2666L16.933 32.9333L20.6663 29.1999L28.2663 36.7999L54.933 10.0666L58.6663 13.7999L28.2663 44.2666Z" fill="#FDF065"/>
</g>
</svg>
